<svg version="1.2" xmlns="http://www.w3.org/2000/svg" viewBox="0 0 400 334" width="400" height="334"><style>.a{fill:#370000}.b{fill:#e85c38;stroke:#f26d35;stroke-miterlimit:100;stroke-width:2.1}.c{fill:#fbffae}.d{fill:#fff}.e{fill:#bf0b17}.f{fill:none;stroke:#ec0e1d;stroke-miterlimit:100;stroke-width:4}.g{fill:#dfe3e2}.h{fill:#bf0b16}.i{fill:#f52c34}.j{fill:#fbdd25}.k{fill:#540000}.l{fill:none;stroke:#ec0e1d;stroke-miterlimit:100}.m{fill:#fefefe}</style><path class="a" d="m209.7 9q0.8 0 1.6 0c56 2.1 100.7 30.8 128.4 75.1h5.8c2.4 0.4 4.4 1.3 6.3 2.4l7.1-0.1c29.1 6.1 34 50.7 16.3 58.4 7 6.1 8.9 8.5 11.9 19.6l4.7 43.6-0.8 5.7 0.7 31.1c-1.8 8-6.3 13.8-15.2 16.4l-0.6 0.1c-9.9 2.2-31.5 3.3-47.1 5.2q-0.4 0.5-0.7 0.9c-27.6 33.5-70.7 57-116.8 58.1-2.5 0.1 0.9 0-1.6 0-49.5 0-93.7-22.7-122.7-58.3-11.4 1.8-23.2 2.7-35.1 2.7-12.7-6.7-22.7-15.6-23.2-27.2-3.5-3.6-6.6-32.7-8.8-54.9-0.3-2.8 3.4-7.2 4.6-8.4-4.6-4.4-8.8-9.5-10.2-18.4-1.5-1.6-2.7-3.7-3.2-7l-1.8-15.4c1-7.3 5.3-11.4 11.7-13.4l37.6-5.1c20-64.3 80.1-111.1 151.1-111.1z"/><path class="b" d="m210 33.2q-8.5-0.8-9.3-9.4 0.8-8.6 9.3-9.4 8.6 0.8 9.4 9.4-0.8 8.6-9.4 9.4z"/><path class="c" d="m210 28.7q-4.4-0.5-4.8-4.9 0.4-4.4 4.8-4.9 4.5 0.5 4.9 4.9-0.4 4.4-4.9 4.9z"/><path class="d" d="m210 26.6c-1.5 0-2.7-1.3-2.7-2.8 0-1.5 1.2-2.8 2.7-2.8 1.5 0 2.8 1.3 2.8 2.8 0 1.5-1.3 2.8-2.8 2.8z"/><path fill-rule="evenodd" class="d" d="m210 31.1c-4 0-7.3-3.3-7.3-7.3 0-4 3.3-7.3 7.3-7.3 4 0 7.3 3.3 7.3 7.3 0 4-3.3 7.3-7.3 7.3zm5.6-7.3c0-3.1-2.5-5.6-5.6-5.6-3.1 0-5.6 2.5-5.6 5.6 0 3.1 2.5 5.6 5.6 5.6 3.1 0 5.6-2.5 5.6-5.6z"/><path class="b" d="m326.3 100.8q-7.7-0.7-8.5-8.5 0.8-7.8 8.5-8.5 7.8 0.7 8.5 8.5-0.7 7.8-8.5 8.5z"/><path class="c" d="m326.3 96.7q-4-0.4-4.4-4.4 0.4-4.1 4.4-4.4 4.1 0.3 4.5 4.4-0.4 4-4.5 4.4z"/><path class="d" d="m326.3 94.8c-1.3 0-2.5-1.1-2.5-2.5 0-1.4 1.2-2.5 2.5-2.5 1.4 0 2.6 1.1 2.6 2.5 0 1.4-1.2 2.5-2.6 2.5z"/><path fill-rule="evenodd" class="d" d="m326.3 98.9c-3.6 0-6.6-3-6.6-6.6 0-3.7 3-6.6 6.6-6.6 3.7 0 6.7 2.9 6.7 6.6 0 3.6-3 6.6-6.7 6.6zm5.1-6.6c0-2.8-2.3-5.1-5.1-5.1-2.8 0-5 2.3-5 5.1 0 2.8 2.2 5 5 5 2.8 0 5.1-2.2 5.1-5z"/><path fill-rule="evenodd" class="e" d="m220.4 212.6q-0.1 0-0.1 0-0.7-0.7-0.9-1.6l-2.8-20.1-8.1 1.1q-0.6 0-1.1-0.1-0.3 0-0.6 0.1l-17.1 1.8 2.9 29.6c0.1 1.3-0.8 2.5-2.1 2.7l-16.6 2.6q-1.1 0.1-1.9-0.5-0.1 0-0.1 0l-6.9-5.5q0 0.5-0.1 1c-0.2 0.7-0.5 1.4-0.9 1.9 0.1 0.5 0.1 0.8 0.2 1.4 0.2 1.4-0.8 2.6-2.1 2.8h-0.1c-0.7 0.1-1.4 0-2-0.1q-1.2-0.4-2.2-0.9-0.4-0.2-0.7-0.4l-10.5-8.4q-0.2-0.1-0.3-0.3-1.2-0.1-2.1-0.9 0 0-0.1-0.1l-3.9-3.1q-0.6-0.1-1.2-0.3c-0.6-0.2-1.1-0.4-1.6-0.7-0.9-0.5-1.6-1-2.5-1.5-0.8-0.4-1.7-0.7-2.5-1.1q-1.5-0.7-2.9-1.5 0.1 0.1 0.3 0.4c0.6 1 0.5 1.6 0.7 2.7 0.1 0.9-0.2 1.8-1 2.4q-0.1 0.1-0.3 0.2c-0.1 0.2-0.3 0.5-0.5 0.7q0.1 0.4 0.1 0.7l0.3 1.5c0.4 1.3 0.6 1.9 0.3 3.3q0 0.1-0.1 0.3l-0.1 0.5c-0.2 0.7-0.1 1.7-0.2 2.4q0 0.4-0.1 0.7l-0.1 0.5c0.6 0.5 1 0.9 1.2 1.9 0.1 1 0 2-0.7 2.8-0.6 0.8-1.1 0.9-1.8 1.3-1.8 1.2-5.5 2.4-7.6 2.7-0.9 0.1-1.4-0.1-1.9-0.4l-2.2-1.8q-0.2 0-0.3 0c-1.8 0-2.6-0.1-3.3-0.7l-8.9-7.1c-0.9 5.6-4.7 10.6-11.7 13.1q-0.2 0.1-0.5 0.1l-46.5 5.9q-1 0.2-1.8-0.5 0 0-0.1 0l-10.5-8.3q-0.8-0.7-0.9-1.7l-5.9-47.3q-0.2-1 0.5-1.9 0.6-0.8 1.7-0.9l15.8-1.8-1.8-1.4q0 0 0-0.1-0.1 0-0.1 0-0.6-0.5-0.8-1.3l-0.1-0.2q0 0 0-0.1l-2.8-20-8.1 1q-1.1 0.2-1.9-0.5l-10.5-8.4q-0.8-0.6-0.9-1.7l-1.7-15c-0.1-1.4 0.9-2.6 2.2-2.8l57.5-7.4q1-0.1 1.9 0.5l2.2 1.8c0.4-0.8 1.1-1.3 2.2-1.5q0.9-0.1 1.6 0.3c-0.1-1-0.1-1.9 0.1-3q0-0.3 0.1-0.6c0-0.4 0-0.7 0.1-1.1 0.3-1.5 1.3-2.5 2.4-3.5l0.7-0.7c0.5-0.6 1.3-1.2 2-1.6 1.7-1.1 4-1.8 6-1.6q0.4 0 0.8 0.1c0.7 0.1 1.3 0.4 2 0.6 0.3 0.1 0.6 0.2 1 0.3q0.5 0.2 0.9 0.5l5.3 4.2q0.2-0.1 0.5-0.2l0.1-0.1c0.3-0.3 0.7-0.5 1.1-0.6 0.5-0.6 1-1 1.5-1.5 0.3-0.4 0.4-0.6 0.8-0.9 0.8-0.7 1.1-1 2.2-1.2 0.8-0.3 2.1-0.8 2.8-1.2 0.9-0.5 1.9-1 2.9-1.4 0.4-0.1 0.7-0.4 1-0.5q0.3-0.2 0.5-0.3 0.4-0.2 0.7-0.3c0.8-0.5 1.4-0.8 2.3-0.9 0.8-0.5 1.9-1.5 2.5-2q0.3-0.3 0.6-0.5 0.2-0.2 0.5-0.4 0.3-0.2 0.6-0.5c1.3-0.9 2.5-1.6 3.9-2.2l5.7-2.8c0.7-0.3 1.4-0.6 2-0.9 0.3-0.6 0.6-1 1.2-1.3 0.4-0.3 0.7-0.3 1-0.4q0.1-0.1 0.3-0.1l0.2-0.1c0.8-1 1.7-1.2 2.9-1.4 0.9-0.8 1.6-1.2 2.9-1.2 0.4-0.1 0.8-0.2 1.2-0.2l0.1-0.1c0.2-0.3 0.5-0.6 0.8-0.8 1.1-0.6 2.4-0.8 3.6-1 0.7-0.1 1.3-0.4 2.1-0.5q0.3-0.1 0.6-0.1h0.1c0.4-0.2 0.8-0.4 1.3-0.5q0.2-0.1 0.5-0.1 0.5-0.1 1.1 0 0.2-0.1 0.4-0.1c1.1-0.2 2.2 0 3 0.7l10.5 8.3c0.5 0.4 0.9 1 1 1.7 0.1 0.9-0.1 1.9-0.7 2.6-0.8 1-1.4 1.1-2.5 1.4-0.5 0.3-1 0.5-1.7 0.7-0.3 0.2-0.7 0.4-1.1 0.5-0.2 0.1-0.3 0.3-0.5 0.4q-0.2 0.1-0.3 0.2 0.1 0.4 0.2 0.8c0.1 0.8-0.2 1.6-0.8 2.2q-0.3 0.2-0.6 0.4c-0.3 0.6-0.7 1.2-1.4 1.5-1.2 0.6-1.6 0.1-2.6 0.3-0.7 0.1-1.4 0.1-2.2 0.1-0.3 0.3-0.7 0.4-1.1 0.5q-0.2 0.3-0.5 0.4l-0.1 0.1q-0.5 0.7-1.2 0.9-0.6 0.7-1.5 0.8c-0.5 0-0.8 0-1.2 0q0 0-0.1 0l9.1 7.2c0.5 0.3 0.9 0.9 1 1.6l2.9 19.6 18.7-2.5-3.8-29.7c-0.2-1.4 0.7-2.6 2.1-2.8l48.6-6.4c0.6-0.1 1.3 0.1 1.8 0.4q0.4-0.2 0.9-0.2l21.7-2.6q1.1-0.1 1.9 0.5l10.5 8.4q0.1 0.1 0.2 0.2l8 8-1.6-17.3c-0.2-1.4 0.8-2.6 2.2-2.8l16.8-1.9q0.8 0 1.4 0.3 0.5-0.3 1-0.3l57.5-7.4q1-0.2 1.8 0.5 5.3 4.2 10.6 8.3 0.8 0.7 0.9 1.8l1.5 15.2c0.1 1.3-0.9 2.6-2.2 2.7l-17.2 1.9 2.3 23.3 4.3-0.6c0.7-0.1 1.4 0.2 1.9 0.6l10.5 8.3c0.5 0.4 0.9 1 1 1.7l1.7 13.4c0.2 1-0.3 1.9-1 2.4l1.1 0.9q0.8 0.7 0.9 1.7l1 11.1c0.1 0.9-0.3 1.7-0.9 2.2l0.7 0.6c0.5 0.4 0.8 1 0.9 1.6l1.7 13.4q0.2 1-0.5 1.9-0.6 0.8-1.7 0.9l-48.5 5.9q-0.4 0-0.7 0c-0.4 0.3-0.9 0.6-1.4 0.7l-47.6 6c-0.7 0.1-1.3-0.2-1.8-0.6l-10.6-8.3c-0.5-0.4-0.8-1-0.9-1.6l-2.7-19.7-8.1 0.9 2.9 29.5c0.1 1.3-0.8 2.5-2.1 2.7l-16.7 2.6q-1 0.2-1.9-0.4 0-0.1 0-0.1zm-192.6-53l12.8 19.6q0 0.1 0 0.2zm291-13.6q0 0-0.1 0 0-0.1 0-0.1-0.8-0.6-0.9-1.6l-2.8-20-7.7 1 2.9 23.1 10-1.3zm-45 4.7q-0.1-0.1-0.3-0.2l-7.4-7.8 1.5 12.1 5.2-0.4c0.6-0.1 1.2 0.1 1.7 0.5l10.6 8.3c0.4 0.4 0.8 1 0.9 1.6l2.9 19.7 18-2.4-3.2-24.6-17.5 2.1c-0.7 0.1-1.3-0.1-1.9-0.5zm-193 29.7l10.5 8.4c1.6 1.2 2.7 2.9 3.6 4.7-0.2-0.9-0.2-1.9-0.2-2.8 0-0.5 0-1.1 0-1.6-0.1-0.6-0.2-1.2-0.1-1.8 0.1-0.6 0.3-1.1 0.5-1.7 0.1-0.8 0.4-1.6 0.6-2.4 0.2-0.5 0.5-1.5 0.6-2 0-0.9 0.2-1.3 0.4-2.1q0.1-0.3 0.1-0.5 0-0.2-0.1-0.3c-0.2-0.9-0.2-1.8 0.3-2.6l0.1-0.1 0.2-0.8c0.1-0.7 0.3-1.1 0.6-1.7 0.2-0.6 0.4-1 0.8-1.6l0.4-1.2c-0.7 0.1-1.5 0-2.1-0.3q-0.6-0.2-1-0.6l-10.6-8.3c-0.9-0.7-1.6-1.8-2.2-2.7-0.5-0.7-0.9-1.5-1.1-2.3q-0.5-1.3-1.1-2.6l-11.2 1.2 2.4 24.1 2.3-0.2q1.4-0.2 2.8 0.1c1.3 0.3 2.4 0.9 3.5 1.7zm14.3 28.1l1.3 1c1.7 1.4 3.2 3 4.3 4.7q0-0.1 0.1-0.2c0.3-0.7 0.7-1 1.4-1.5l0.1-0.2q0-0.3 0.1-0.6 0.2-0.7 0.6-1.2c-0.4-0.4-0.8-0.8-1.3-1.2l-1.1-1.1c-0.5-0.4-0.9-0.8-1.3-1.3-1.4-1.6-2.3-5.4-2.9-7.6 0.2 3.1-0.2 6.3-1.3 9.2zm62.5-10.3l-2.7 0.3 3.1 2.5zm-18.3-6.1q-0.1 0.5-0.2 0.9 0.6-0.1 1.2 0 0.1 0 0.1 0zm1.2 1q0 0 0 0zm-99.9-13.7h0.1z"/><path class="b" d="m323.3 237.7q-7.8-0.7-8.5-8.5 0.7-7.7 8.5-8.5 7.8 0.8 8.5 8.5-0.7 7.8-8.5 8.5z"/><path class="c" d="m323.3 233.6q-4.1-0.3-4.4-4.4 0.3-4 4.4-4.4 4 0.4 4.4 4.4-0.4 4.1-4.4 4.4z"/><path class="d" d="m323.3 231.7c-1.4 0-2.5-1.1-2.5-2.5 0-1.4 1.1-2.5 2.5-2.5 1.4 0 2.5 1.1 2.5 2.5 0 1.4-1.1 2.5-2.5 2.5z"/><path fill-rule="evenodd" class="d" d="m323.3 235.9c-3.7 0-6.6-3-6.6-6.7 0-3.6 2.9-6.6 6.6-6.6 3.6 0 6.6 3 6.6 6.6 0 3.7-3 6.7-6.6 6.7zm5.1-6.7c0-2.8-2.3-5-5.1-5-2.8 0-5.1 2.2-5.1 5 0 2.8 2.3 5.1 5.1 5.1 2.8 0 5.1-2.3 5.1-5.1z"/><path class="b" d="m111.3 261q-8.3-0.7-9.1-9 0.8-8.3 9.1-9.1 8.3 0.8 9.1 9.1-0.8 8.3-9.1 9z"/><path class="c" d="m111.3 256.7q-4.3-0.4-4.7-4.7 0.4-4.3 4.7-4.7 4.3 0.4 4.7 4.7-0.4 4.3-4.7 4.7z"/><path class="d" d="m111.3 254.7c-1.5 0-2.7-1.2-2.7-2.7 0-1.5 1.2-2.7 2.7-2.7 1.5 0 2.7 1.2 2.7 2.7 0 1.5-1.2 2.7-2.7 2.7z"/><path fill-rule="evenodd" class="d" d="m111.3 259c-3.9 0-7.1-3.1-7.1-7 0-3.9 3.2-7.1 7.1-7.1 3.9 0 7 3.2 7 7.1 0 3.9-3.1 7-7 7zm5.4-7c0-3-2.4-5.4-5.4-5.4-3 0-5.4 2.4-5.4 5.4 0 3 2.4 5.4 5.4 5.4 3 0 5.4-2.4 5.4-5.4z"/><path class="f" d="m65.7 127c41.7-141.3 212.1-145.9 273.8-33.2"/><path fill-rule="evenodd" class="g" d="m172.3 115.8c-0.1 1.2-0.6 2.2-1.6 3.3q0 0.1-0.1 0.2l-0.6 0.5c-2.1 2.2-3.4 2.7-6.5 2.7-0.9 0-1.2 0-1.5 0.3q1 0.7 1.9 1.5c1.2 0.9 2.6 1.7 3.5 2.9 1.3 1.4 1.7 3.2 2 5.1 0.6 4.9 1.1 9.9 2.1 14.7 3.7-0.3 7.5-1.2 11.1-1.6q0.8-0.1 1.5-0.3-0.3-2-0.6-3.9l-2.6-20c-0.3-2.1-0.7-4.2 0.3-6.1 0.8-1.4 2-2.2 3.5-2.7 1.2-0.4 2.9-0.5 4.1-0.7q3.2-0.5 6.4-0.9c3.3-0.4 6.7-0.8 10-1.2l27-3.5c1.9-0.3 2.3-0.4 4.1 0 1.1 0 3-0.3 4.1-0.4 1.6-0.2 3.2-0.5 4.8-0.7 4.9-0.5 9.7-1.4 14.6-1.4 1.4 0 2.7 0.9 3.8 1.7q1.8 1.3 3.5 2.7 2.4 1.9 4.8 3.9c1.3 1.1 2.5 2.1 3.7 3.3q-0.3-2.4-0.6-4.6c-0.3-2.6-0.8-5.7 0.9-7.9 1.4-1.8 3.5-2.3 5.7-2.6 2.8-0.4 5.7-0.5 8.5-0.8 2.2-0.2 4.3-0.6 6.4-0.6 3.9-0.2 7.9-0.9 11.8-1.4 8.1-1 16.3-2.2 24.5-3.3q7.9-1 15.7-1.9 2.9-0.4 5.8-0.7c1.2-0.1 2.5-0.2 3.6-0.2 1.3 0 2.4 0.9 3.4 1.7q1.6 1.2 3.1 2.4 2.3 1.8 4.5 3.6c1.5 1.2 3.2 2.5 4 4.3 0.6 1.3 0.7 2.6 0.7 4 0.1 1.9 0.2 3.8 0.5 5.7 0.1 1.9 0.5 3.8 0.6 5.7 0.2 1.7 0.2 3.4-0.8 4.8-1.6 2.2-4.5 2.6-6.9 2.9-3.7 0.5-7.6 0.5-11.4 1.1 0.2 4.9 1.1 9.8 1.5 14.7q0.1 1.1 0.3 2.3c0.9-0.2 1.9-0.3 2.9-0.1 2.4 0.5 8.5 6.1 10.9 7.9q0.8 0.7 1.6 1.3c1.4 1.1 1.7 1.4 2.2 3.1 0.6 1.8 0.7 3.7 0.9 5.6 0.5 3.5 1.1 6.9 1.1 10.5q0 0.4 0 0.7c1.5 2.3 1.4 5 1.6 7.9q0 2.3 0.3 4.5c0.3 1.6 0.3 2.5 0 3.5 0.8 1.2 1 2.7 1.2 4.5 0.1 1.8 0.4 3.6 0.6 5.4 0.1 1.1 0.4 2.2 0.6 3.4 0.5 3.7-0.1 7.6-4.4 8.6q-0.1 0-0.3 0.1l-21.1 2.5q0 0-0.1 0c-8.8 0.9-17.7 1.9-26.5 3.2-0.8 0.2-1.3 0.3-2.1 0.6-2 0.5-4.6 0.8-6.7 1.1q-5.4 0.7-10.8 1.3-8.5 1.1-17 2c-2.6 0.3-5.1 0.8-7.6 1.1-2.5 0.4-7.8 1.2-9.9 0-0.8-0.5-1.7-1.1-2.5-1.7q-1.6-1.2-3.1-2.5-2.5-2-4.9-4c-2.5-2-2.7-2.9-3.1-6q-0.3-2.5-0.7-5-0.6-4.2-1-8.4c-0.1-0.3-0.1-0.9-0.2-1.5q-0.3 0-0.5 0.1-0.8 0.1-1.7 0.2 0.2 1.7 0.4 3.3 0 0 0 0.1l2 19.5c0.3 2.5 0.6 5.4-1 7.5-1.4 1.7-3.6 2.2-5.7 2.6-2.9 0.4-5.8 0.7-8.7 1.2-6.5 1-7 2.2-12.6-2.2-2.8-2.3-9-6.2-10-9.6q-0.1-0.2-0.1-0.4l-2.4-17-17.3 1.8c-1.1 0.1-2.2 0.3-3.4 0.4 0.2 1.4 0.3 2.8 0.4 3.5 0.2 2.1 0.4 4.3 0.6 6.4 0.4 4.5 1.1 9.1 1.4 13.6 0.2 2.5 0.3 5.5-1.6 7.4-1.9 1.9-5.2 2-7.7 2.4q-3.2 0.5-6.3 1c-2.1 0.3-4.7 1-6.7 0.8-2.4-0.4-4.4-1.9-6.2-3.4-0.2 0.9-0.4 1.7-1 2.5-1.1 1.5-2.8 2.1-4.6 2.1-4 0-7.8-3-10.6-5.4-1.8-1.5-4.3-3.9-6.3-5q-0.1-0.1-0.2-0.1l-3.8-2.5q-0.2-0.1-0.3-0.2c-0.4-0.3-0.9-0.9-1.4-1.1-0.5-0.3-1.4-0.5-2-0.8q-0.1 0-0.1-0.1l-3.5-1.8c-0.2 0.7-0.6 1.3-1.2 1.9 0.3 1.1 0.7 2.2 0.7 3.5q0 0.3 0 0.5l-0.7 4.1c1 1.7 1.4 3.7 0.7 5.6-1 2.6-3.6 4.2-6 5.2-3.1 1.3-7.4 3.2-10.5 1-0.9-0.7-0.9-1.1-2.1-1.3-4.2-0.7-6.1-3.1-9.2-5.5q-0.1-0.1-0.2-0.1-0.4 1.2-1.1 2.4c-2.2 3.6-5.6 5.9-9.4 7.6-3.1 1.4-6.9 1.5-10.4 1.9l-19.6 2.5c-3.2 0.4-6.4 0.9-9.7 1.3q-2.5 0.3-5.1 0.6c-2.2 0.3-5.3 0.9-7.4 0.1-1.1-0.4-2-1-2.9-1.8-1.1-0.9-2.1-1.8-3.3-2.7-5.4-4.3-7.4-4.3-8.2-11.6l-4.9-39.4q-0.1-0.5-0.2-1c-0.4-2.3-0.9-4.6 0.2-6.8 1-1.9 2.9-2.9 4.9-3.2q0.1 0 0.2 0l9.6-1.2q-0.2-0.9-0.3-1.8-0.4-3-0.9-6.1c-0.4-3-0.9-6-1.3-9-1.3 0.1-2.6 0.3-3.5 0.4-5.2 0.8-8.1-3-11.8-5.9-0.7-0.6-1.4-1.1-2.1-1.7-0.8-0.6-1.6-1.1-2.3-1.8-2.6-2.5-2.3-4.8-2.5-8q-0.3-3-0.7-6.1c-0.2-1.3-0.4-2.7-0.5-4q0-0.2 0-0.3c0-0.1 0-1.7 0-1.8 0.6-4.9 5.9-5 9.7-5.5 15.6-2.3 31.3-4 46.9-6.1 5-0.7 6.7-1.8 10.3 0.7q0.3-0.1 0.7-0.2c0.3-2.8 1.1-5.1 3.4-7.4 2.3-2.2 4.3-3.8 7.5-4.5 5.5-1.4 8.8 0.7 12.9 3.9q0.4 0.4 0.8 0.7c0.6-0.6 1.2-1.3 1.4-1.5 1.9-1.7 3.2-1.9 5.4-2.8 0.7-0.3 1.3-0.7 1.9-1.1 1.6-0.8 3-1.3 4.6-2 1.3-0.6 2.3-1.4 3.4-2.2 2-1.5 4-2.8 6.2-3.9 1.6-0.9 3.3-1.6 4.9-2.4 1.1-0.6 2.2-1.3 3.2-2.1q0.3-0.2 0.6-0.3l6.6-3.4q0.3-0.1 0.6-0.2c0.5-0.1 1.1-0.2 1.6-0.3 2.3-1.6 3.5-1.5 5.9-2.2 5.4-1.4 7.6-2.4 12.5 1.3l7.2 5.7c2.5 1.9 5 4.6 4 8-0.7 2.4-3 3.8-5.2 4.8q-0.7 0.3-1.4 0.5zm-93.9 46.6q0.1 1.1 0.2 2.1 0.3 3.4 0.7 6.7 0.4 3.4 0.7 6.8 0.1 1.1 0.2 2.2c0.1 0 0.9 0 1 0 4.9 0 10.8 5.8 14.5 8.7q0.7 0.6 1.4 1.1 0.1-0.6 0.2-1.2c0.3-1.4 0.8-2.6 1.2-3.9 0.1-0.6 0.2-1 0.2-1.6-0.5-1.2-0.2-2.2 0.2-3.4q0-0.1 0.1-0.2l1-2.4q-0.6-0.3-1.2-0.8l-7.2-5.8c-2-1.6-4.8-3.6-6-5.9-0.4-0.7-0.7-1.4-1-2.1q-0.1-0.5-0.4-1zm215.3 4.9c0.9 1.8 1 4.5 1.3 6.5l1.7 11.8 7.7-1q2-0.2 4-0.4 0.1 0 0.2 0l-2.4-18.5q-0.3 0.1-0.5 0.1-2.8 0.3-5.5 0.7c-1.3 0.2-4 0.6-6.5 0.8zm22.4-34.4c0.5 4.4 1.1 8.7 1.6 13.1q0.2 1.8 0.4 3.7l1.9-0.3-2.5-16.7q-0.7 0.1-1.4 0.2z"/><path class="b" d="m78.1 128.2q-7-0.6-7.7-7.7 0.7-7 7.7-7.6 7 0.6 7.7 7.6-0.7 7.1-7.7 7.7z"/><path class="c" d="m78.1 124.5q-3.6-0.3-4-4 0.4-3.6 4-3.9 3.7 0.3 4 3.9-0.3 3.7-4 4z"/><path class="d" d="m78.1 122.8c-1.2 0-2.2-1-2.2-2.3 0-1.2 1-2.2 2.2-2.2 1.3 0 2.3 1 2.3 2.2 0 1.3-1 2.3-2.3 2.3z"/><path fill-rule="evenodd" class="d" d="m78.1 126.5c-3.3 0-6-2.7-6-6 0-3.3 2.7-5.9 6-5.9 3.3 0 6 2.6 6 5.9 0 3.3-2.7 6-6 6zm4.6-6c0-2.5-2.1-4.5-4.6-4.5-2.5 0-4.6 2-4.6 4.5 0 2.6 2.1 4.6 4.6 4.6 2.5 0 4.6-2 4.6-4.6z"/><path fill-rule="evenodd" class="d" d="m172.8 116.3q-0.1 0.7-0.4 1.5-0.4 0.8-1.2 1.7c-0.1 0.2-0.7 0.6-0.8 0.7-1.1 1.2-2 1.9-3 2.3-1.1 0.4-2.2 0.6-3.9 0.6h-0.1q0.5 0.4 0.9 0.7 0.5 0.4 1.1 0.8c0.9 0.6 1.8 1.3 2.5 2.2 0.7 0.8 1.1 1.6 1.5 2.6 0.3 0.9 0.4 1.8 0.6 2.8 0.1 1.4 0.2 2.2 0.4 3.1 0.4 3.7 0.9 7.4 1.6 11.1 1.7-0.2 3.5-0.5 5.3-0.8 1.7-0.3 3.5-0.6 5.2-0.8q0.4-0.1 0.8-0.1l0.2-0.1-0.2-0.9q-0.2-1.2-0.4-2.4l-2.6-20-0.1-0.6c-0.3-2-0.5-4 0.5-5.9q0.6-1.1 1.6-1.8 1-0.8 2.2-1.2c1.1-0.3 2.4-0.5 3.6-0.6l0.6-0.1q1.6-0.2 3.2-0.5c1.3-0.1 2.3-0.2 3.2-0.4q2.5-0.3 5.1-0.6 2.4-0.3 5-0.6l27.4-3.6c1.6-0.2 2.1-0.3 3.8 0.1 0.8 0 2.2-0.2 3.2-0.3l0.7-0.1c0.6-0.1 1.2-0.2 1.9-0.3q1.5-0.2 2.9-0.4 2.2-0.2 4.4-0.5c3.4-0.5 6.8-0.9 10.3-0.9 1.6 0 2.9 1 4.1 1.8q0.9 0.7 1.8 1.3c0.5 0.5 1.1 0.9 1.7 1.4 0.8 0.6 1.5 1.2 2.2 1.8 0.8 0.7 1.7 1.4 2.7 2.2q1 0.8 1.9 1.6l0.6 0.5-0.4-3.2c-0.4-2.6-0.8-5.7 1-8 0.8-1 1.7-1.7 2.8-2.1 1.1-0.4 2.2-0.6 3.3-0.8 1.9-0.3 4-0.4 6-0.6q1.2-0.1 2.6-0.2c0.9 0 1.7-0.2 2.6-0.3 1.2-0.1 2.5-0.3 3.8-0.3 2.6-0.2 5.3-0.5 8-0.9q1.9-0.3 3.7-0.5c5.1-0.6 10.2-1.3 15.3-2 3-0.4 6.1-0.8 9.2-1.3q3.9-0.5 7.9-1 4.1-0.5 7.9-0.9 1.3-0.2 2.9-0.4 1.4-0.1 2.9-0.3h0.4c1-0.1 2.2-0.2 3.2-0.2 1.4 0 2.4 0.8 3.4 1.5l1.9 1.5 2.3 1.8q1.9 1.5 3.8 3l0.2 0.2c1.5 1.2 3.1 2.6 3.9 4.4q0.5 1 0.6 2.1 0.2 1 0.2 2.1 0.1 1.4 0.2 2.8 0.1 1.5 0.3 2.9 0.1 1.3 0.3 2.6 0.2 1.5 0.3 3c0.1 0.9 0.2 1.8 0.1 2.7-0.2 0.9-0.5 1.8-1 2.6-1.7 2.4-4.7 2.8-7.3 3.1-1.8 0.2-3.5 0.3-5.2 0.4-1.9 0.2-3.8 0.3-5.7 0.6 0.2 2.7 0.5 5.4 0.8 8.1 0.3 2 0.5 4 0.7 6q0.1 0.9 0.2 1.7 0.4-0.1 0.9-0.1 0.8 0 1.6 0.1c2 0.5 6.3 4 9.1 6.4 0.8 0.7 1.5 1.3 2 1.7l1.7 1.3c0.7 0.5 1.2 0.9 1.5 1.4 0.4 0.5 0.6 1 0.9 1.9 0.4 1.4 0.6 2.8 0.7 4.2q0.1 0.8 0.2 1.5c0.1 0.8 0.2 1.7 0.4 2.7 0.4 2.6 0.8 5.2 0.8 7.9q0 0.2-0.1 0.4v0.2c1.3 2.1 1.4 4.6 1.5 7.2l0.1 0.8q0 1 0.1 2.2 0.1 1.1 0.2 2.2c0.1 0.9 0.2 1.5 0.2 2.1 0 0.5-0.1 0.9-0.2 1.4q0.5 0.9 0.8 2c0.2 0.8 0.3 1.6 0.4 2.6q0.2 1.8 0.4 3.5l0.2 1.8q0.1 0.9 0.3 1.8 0.2 0.8 0.3 1.6c0.3 2.1 0.2 4.3-0.7 6.1-0.7 1.5-2 2.7-4.1 3.2h-0.2l-0.2 0.1c-5.8 0.7-16 2.5-21.2 2.5q-6.6 0.7-13.3 1.5-6.6 0.7-13.2 1.7c-0.6 0.1-1 0.2-1.5 0.4l-0.6 0.1c-1.6 0.5-3.6 0.8-5.4 1l-1.3 0.2q-2.6 0.3-5.4 0.7c-2.1 0.2-3.8 0.4-5.4 0.6q-4.2 0.6-8.6 1.1-4.2 0.5-8.5 0.9c-1.4 0.2-2.9 0.4-4.3 0.7q-1.7 0.2-3.3 0.4l-0.5 0.1c-2.7 0.4-7.5 1-9.7-0.2-0.8-0.4-1.7-1.1-2.4-1.7h-0.1q-0.8-0.6-1.6-1.3-0.9-0.6-1.6-1.2c-1.6-1.3-3.2-2.6-4.7-3.9l-0.2-0.1c-1.3-1.1-2-1.9-2.4-2.8-0.5-1-0.7-2-0.9-3.6-0.1-1.1-0.3-2.3-0.5-3.6-0.2-1.4-0.6-4.2-0.8-5.6q-0.2-2-0.4-4.2l-0.1-0.9-1 0.1 0.1 1.1c0.9 7.1 1.5 14.3 2.2 21.4 0.3 2.5 0.6 5.5-1.2 7.8-0.7 0.9-1.7 1.6-2.8 2-1 0.4-2.1 0.6-3.2 0.8q-2.2 0.3-4.4 0.6-2.2 0.3-4.3 0.6-1.5 0.3-2.7 0.5c-4.3 0.8-5.5 1-10.3-2.9q-0.9-0.6-2.1-1.5c-3.1-2.3-7.4-5.4-8.2-8.3v-0.3l-0.1-0.2-2.3-16.4-16.7 1.7q-1 0.1-2 0.2l-0.8 0.1c0.1 0.7 0.1 1.5 0.2 2.1l0.1 0.8c0.1 0.9 0.1 1.9 0.2 2.9 0.1 1.2 0.3 2.3 0.4 3.6 0.1 1.5 0.3 3.2 0.5 4.8 0.4 2.9 0.7 5.9 0.9 8.8 0.1 1.3 0.2 2.7 0 4-0.2 1.4-0.7 2.8-1.8 3.8-1.6 1.7-4.3 2.1-6.6 2.4q-0.7 0.1-1.4 0.2c-1.2 0.2-2.6 0.4-4 0.6l-2.3 0.4c-0.5 0-1.1 0.2-1.6 0.3-1.8 0.3-3.7 0.7-5.3 0.5-1.3-0.2-2.5-0.7-3.5-1.4-0.8-0.4-1.6-1-2.3-1.5q0 0.2-0.1 0.4-0.3 0.7-0.7 1.3c-0.6 0.8-1.3 1.4-2.2 1.8-0.9 0.4-1.9 0.6-2.9 0.6-2.1 0-4.2-0.8-6-1.9-1.9-1.1-3.6-2.4-5-3.7q-0.7-0.6-1.4-1.2c-1.5-1.3-3.3-2.9-4.7-3.7-1.4-0.7-3-1.8-4.3-2.7l-0.1-0.1q-0.3-0.2-0.5-0.4c-0.3-0.3-0.6-0.6-0.9-0.7-0.2-0.2-0.6-0.3-1-0.4q-0.5-0.2-0.9-0.3c-0.9-0.4-2.2-1.2-3.1-1.6q-0.1 0.2-0.3 0.4-0.2 0.4-0.5 0.8l0.1 0.4c0.2 1 0.5 1.9 0.5 2.9 0 0.1 0 0.5 0 0.6l-0.6 3.9c0.5 0.9 0.8 1.9 0.9 2.9 0.1 0.9 0 2-0.3 3-0.6 1.4-1.5 2.6-2.7 3.5-1.1 0.9-2.4 1.5-3.7 2l-0.3 0.2c-3.2 1.3-7.5 3.1-10.7 0.8-0.4-0.2-0.6-0.4-0.8-0.6-0.3-0.3-0.5-0.5-1.1-0.6-3.5-0.5-5.4-2.2-7.7-4.1q-0.6-0.6-1.3-1.2l-0.2 0.6q-0.3 0.6-0.7 1.2c-1.1 1.9-2.6 3.4-4.2 4.7-1.7 1.3-3.5 2.3-5.4 3.2-2.5 1.1-5.3 1.4-8 1.6q-1.3 0.2-2.6 0.3l-19.6 2.5c-1.1 0.2-2.3 0.3-3.4 0.5-2.1 0.3-4.2 0.5-6.3 0.8-0.9 0.1-1.7 0.2-2.5 0.3-0.9 0.1-1.8 0.2-2.6 0.3q-0.6 0.1-1.2 0.2c-2.1 0.2-4.6 0.6-6.5-0.1q-0.9-0.3-1.7-0.8-0.7-0.5-1.3-1.1l-0.7-0.6q-1.3-1.1-2.6-2.2c-1-0.7-1.9-1.3-2.6-1.9-3.7-2.6-5.2-3.8-5.9-10.1l-4.9-39.3q-0.1-0.2-0.1-0.5l-0.2-1c-0.4-2.2-0.8-4.4 0.4-6.6 0.5-1.1 1.2-1.8 2.1-2.4 0.9-0.6 2.1-1 3.2-1.2 2.6-0.6 6.4-0.8 9.2-1.1q-0.1-0.6-0.2-1.2l-0.4-3.1-0.5-3c-0.2-1.3-0.4-2.6-0.6-3.8q-0.3-2.3-0.7-4.6h-0.7q-1.2 0.2-2.1 0.3c-4.5 0.7-7.3-1.7-10.2-4.3q-1-0.9-2-1.7l-0.6-0.5q-0.8-0.6-1.5-1.2l-0.2-0.1c-0.8-0.6-1.5-1.1-2.2-1.8-2.4-2.3-2.5-4.3-2.6-6.9-0.1-0.5-0.1-0.9-0.1-1.4q-0.2-1.6-0.3-3.1-0.2-1.5-0.4-3l-0.1-0.9c-0.2-1.1-0.3-2.2-0.4-3.2q0-0.9 0-1.7 0-0.3 0-0.5c0.6-4.8 5.1-5.4 8.9-5.9 0.4 0 0.8-0.1 1.3-0.1 9.7-1.5 19.4-2.7 29.1-3.8 6-0.8 12.1-1.5 17.9-2.3q1.4-0.2 2.6-0.4c3.1-0.6 4.9-0.9 7.8 1 0.2-1.3 0.5-2.5 1-3.6 0.6-1.3 1.4-2.5 2.6-3.7 1.1-1.1 2.3-2.1 3.5-2.9q1.8-1.2 4.2-1.8c2.9-0.7 5.2-0.5 7.4 0.3 2.1 0.8 3.9 2.1 6 3.8l0.5 0.3 0.5-0.6c0.2-0.2 0.4-0.4 0.5-0.5 1.6-1.5 2.8-1.9 4.3-2.5q0.7-0.2 1.3-0.5c0.4-0.1 0.8-0.4 1.1-0.6q0.4-0.2 0.8-0.4c1.2-0.6 2.3-1.1 3.4-1.6l1.1-0.5q0.9-0.4 1.7-0.9 0.9-0.6 1.7-1.2 1.4-1.2 3-2.1 1.5-1 3.2-1.9 1.2-0.6 2.3-1.1 1.4-0.6 2.6-1.3 0.8-0.4 1.6-0.9 0.8-0.5 1.5-1.1 0.2-0.1 0.3-0.2 0.2-0.1 0.4-0.2c0.1-0.1 6.9-3.4 7-3.5q0.2 0 0.4-0.1 0.4-0.1 0.8-0.2 0.3 0 0.6-0.1c1.8-1.2 2.9-1.4 4.5-1.8q0.7-0.1 1.6-0.3l1.2-0.4c4.7-1.2 7-1.9 11.7 1.7 2.4 1.7 5 3.9 7.3 5.8 1.3 0.9 2.6 2.1 3.4 3.5 0.9 1.5 1.3 3.2 0.8 5-0.4 1.4-1.3 2.4-2.3 3.3-1 0.8-2.1 1.4-3.3 1.9q-0.5 0.2-1.1 0.5zm-1.5 1q0.3-0.8 0.4-1.5v-0.4l0.5-0.2q0.6-0.2 1.2-0.5c1.1-0.5 2.2-1 3.1-1.8 0.8-0.7 1.5-1.5 1.8-2.6 0.5-1.5 0.1-2.8-0.6-4-0.8-1.3-2-2.4-3.1-3.3-2.3-1.8-4.9-4-7.3-5.7-4.3-3.2-6.4-2.7-10.7-1.5l-1.2 0.3c-0.7 0.2-1.2 0.3-1.7 0.4-1.4 0.3-2.4 0.5-4.1 1.7l-0.2 0.1q-0.4 0.1-0.8 0.1-0.4 0.1-0.7 0.2-0.2 0-0.3 0.1-0.1 0-0.2 0.1l-6.7 3.3q-0.1 0.1-0.2 0.1-0.1 0.1-0.2 0.2-0.8 0.6-1.6 1.1-0.9 0.6-1.7 1-1.4 0.7-2.6 1.3c-0.8 0.4-1.6 0.7-2.4 1.1q-1.6 0.8-3.1 1.8-1.5 0.9-2.9 2.1-0.8 0.6-1.7 1.2-0.9 0.6-1.9 1l-1.1 0.5c-1.1 0.5-2.2 1-3.4 1.6q-0.3 0.1-0.6 0.4c-0.5 0.2-0.9 0.4-1.3 0.6q-0.8 0.3-1.4 0.5c-1.4 0.6-2.5 1-3.8 2.2q-0.2 0.2-0.5 0.5c-0.3 0.3-0.6 0.7-1 1l-0.3 0.4-1.3-1c-2-1.6-3.8-2.9-5.7-3.6-2-0.7-4-0.9-6.7-0.2-1.5 0.3-2.7 0.9-3.9 1.6-1.1 0.8-2.2 1.7-3.2 2.8q-1.6 1.5-2.4 3.3-0.7 1.6-0.9 3.6v0.4l-0.4 0.1q-0.2 0.1-0.3 0.1-0.2 0.1-0.4 0.2l-0.3 0.1-0.3-0.2c-2.6-1.8-4.2-1.5-7.1-1-0.7 0.1-1.6 0.3-2.7 0.4-6.1 0.8-12 1.5-17.9 2.3-9.7 1.2-19.4 2.3-29 3.8-0.4 0-0.8 0.1-1.3 0.1-3.4 0.5-7.4 1-7.9 4.9 0 0.6 0 1.3 0 1.9 0.1 1 0.2 2.1 0.4 3.1l0.1 1q0.2 1.5 0.4 3 0.1 1.6 0.3 3.1c0 0.4 0 0.9 0.1 1.4 0.1 2.4 0.2 4.2 2.2 6.1 0.7 0.7 1.4 1.2 2.1 1.7l0.2 0.2q0.8 0.6 1.6 1.2l0.5 0.4q1.1 0.9 2.1 1.8c2.7 2.4 5.3 4.6 9.2 4 0.7-0.1 1.4-0.2 2.2-0.3l1.9-0.2 0.1 0.6q0.3 2.6 0.7 5.2c0.3 1.3 0.5 2.6 0.6 3.8l0.5 3.1 0.4 3q0.1 0.9 0.3 1.8l0.1 0.6c-3.4 0.4-6.9 0.8-10.4 1.3-1 0.2-1.9 0.5-2.8 1-0.7 0.5-1.2 1.1-1.7 1.9-0.9 1.8-0.5 3.9-0.2 5.9l0.2 1q0 0.3 0.1 0.6l4.9 39.3c0.6 5.8 2 6.8 5.4 9.2q1.2 0.9 2.6 2 1.4 1.1 2.7 2.2l0.6 0.6q0.7 0.5 1.3 0.9 0.6 0.5 1.4 0.8c1.6 0.5 4 0.2 6 0q0.6-0.1 1.2-0.2c0.9-0.1 1.7-0.2 2.6-0.3 0.8-0.1 1.7-0.2 2.5-0.3q3.1-0.4 6.2-0.8c1.1-0.2 2.3-0.3 3.5-0.5l19.6-2.5q1.2-0.1 2.6-0.3c2.6-0.2 5.3-0.5 7.6-1.5 1.8-0.9 3.6-1.9 5.1-3.1 1.6-1.2 2.9-2.6 4-4.3q0.3-0.6 0.6-1.2 0.3-0.6 0.5-1.2l0.3-0.7 0.7 0.6q1 0.8 1.9 1.6c2.1 1.7 3.9 3.3 7.1 3.8 1 0.2 1.3 0.5 1.8 0.9q0.2 0.2 0.6 0.5c2.7 1.9 6.6 0.3 9.5-0.9l0.3-0.2c1.2-0.5 2.4-1.1 3.5-1.9 1-0.8 1.8-1.7 2.2-2.9q0.5-1.3 0.3-2.5c-0.1-0.9-0.4-1.8-0.9-2.6l-0.1-0.4 0.7-4.1v-0.4c0-0.9-0.2-1.7-0.5-2.5q-0.1-0.5-0.2-0.9l-0.1-0.3 0.3-0.3q0.4-0.3 0.6-0.7 0.3-0.4 0.4-0.9l0.3-0.6c1.3 0.7 2.8 1.6 4.2 2.2q0.4 0.1 0.8 0.3c0.4 0.1 0.8 0.2 1.2 0.4 0.4 0.2 0.7 0.5 1.1 0.9q0.2 0.2 0.4 0.3l0.2 0.2c1.3 0.8 2.7 1.9 4 2.6 1.6 0.8 3.4 2.4 5 3.8 0.5 0.4 1 0.9 1.3 1.2 1.5 1.2 3.1 2.6 4.9 3.6 1.7 1 3.5 1.7 5.4 1.7 0.9 0 1.7-0.2 2.4-0.5q1-0.4 1.7-1.4 0.4-0.5 0.6-1.1 0.2-0.5 0.3-1.1l0.1-1 0.9 0.7c0.9 0.7 1.8 1.4 2.8 2 0.9 0.6 2 1 3.1 1.2 1.4 0.2 3.2-0.2 4.8-0.5q0.8-0.2 1.7-0.3l2.3-0.4c1.3-0.2 2.6-0.4 4-0.6q0.7-0.1 1.4-0.2c2.2-0.3 4.6-0.6 6-2 0.8-0.9 1.2-2 1.4-3.2 0.2-1.2 0.1-2.5 0-3.8-0.2-2.8-0.5-5.7-0.9-8.6-0.2-1.6-0.3-3.2-0.5-4.9-0.1-1.1-0.3-2.4-0.4-3.6-0.1-0.9-0.1-1.8-0.2-2.8l-0.1-0.9c-0.1-0.7-0.2-1.6-0.3-2.6v-0.6l0.6-0.1c0.5-0.1 1-0.1 1.4-0.2q1-0.1 1.9-0.2c4.9 0 12.8-1.3 18-1.8l2.4 17.5v0.2l0.1 0.2c0.7 2.5 4.7 5.4 7.7 7.6 0.8 0.6 1.5 1.1 2.1 1.6 4.4 3.5 5.5 3.3 9.4 2.6 0.8-0.2 1.7-0.3 2.7-0.5q2.2-0.3 4.3-0.6 2.2-0.3 4.4-0.6c1-0.2 2-0.4 3-0.8 0.9-0.3 1.7-0.8 2.3-1.6 1.4-1.8 1.2-4.6 0.9-6.9-0.7-7.1-1.3-14.3-2.2-21.4l-0.2-2.2 0.6-0.1q0.4 0 0.8-0.1 0.4 0 0.8-0.1l0.2-0.1 0.9-0.2 0.1 0.7c0 0.3 0.1 0.7 0.1 1l0.1 0.6q0.2 2 0.4 4.1 0.3 2.1 0.6 4.2l0.2 1.5c0.2 1.1 0.3 2.2 0.5 3.5 0.2 1.5 0.4 2.4 0.7 3.2 0.4 0.8 1 1.5 2.2 2.4l0.1 0.2q2.4 1.9 4.8 3.9l1.5 1.2q0.8 0.6 1.6 1.2l0.1 0.1c0.7 0.5 1.5 1.1 2.3 1.6 1.8 1 6.4 0.3 8.9 0l0.6-0.1q1.6-0.2 3.2-0.4c1.5-0.3 3-0.5 4.4-0.7q4.2-0.4 8.5-0.9 4.1-0.5 8.5-1.1c2-0.2 3.9-0.4 5.4-0.6q2.7-0.4 5.5-0.7l1.2-0.2c1.8-0.2 3.8-0.5 5.3-0.9l0.6-0.2c0.5-0.1 0.9-0.3 1.6-0.4q6.6-1 13.3-1.7 6.6-0.8 13.3-1.5c7-0.8 14.2-1.6 21.3-2.5l0.1-0.1c1.7-0.4 2.7-1.3 3.3-2.5 0.8-1.5 0.9-3.5 0.6-5.5q-0.1-0.7-0.3-1.5-0.2-0.9-0.3-1.9l-0.2-1.7q-0.3-1.8-0.4-3.6c-0.1-0.9-0.2-1.7-0.4-2.4-0.2-0.7-0.4-1.3-0.7-1.9l-0.2-0.3 0.1-0.2c0.1-0.4 0.2-0.8 0.2-1.3 0-0.5-0.1-1.1-0.2-1.9q-0.1-1.2-0.2-2.3-0.1-1.1-0.2-2.3v-0.7c-0.1-2.6-0.2-4.9-1.4-6.8l-0.2-0.2 0.1-0.3q0-0.1 0-0.3 0-0.1 0-0.3c0-2.7-0.3-5.2-0.7-7.8-0.1-0.8-0.3-1.7-0.4-2.7q-0.1-0.7-0.2-1.5c-0.1-1.3-0.2-2.7-0.6-3.9-0.3-0.8-0.5-1.2-0.7-1.6-0.3-0.4-0.7-0.7-1.3-1.2l-1.7-1.3c-0.5-0.4-1.2-1-2-1.6-2.8-2.4-6.9-5.8-8.7-6.2q-0.6-0.1-1.3-0.1-0.6 0.1-1.3 0.2l-0.7 0.1-0.1-0.7q-0.1-1.1-0.2-2.3c-0.2-2-0.4-4-0.7-6-0.3-2.9-0.6-5.8-0.8-8.7v-0.6h0.5c2.1-0.4 4.2-0.5 6.3-0.7 1.8-0.1 3.5-0.2 5.1-0.4h0.1c2.3-0.3 5-0.7 6.4-2.6 0.4-0.6 0.7-1.3 0.8-2.1 0.1-0.8 0-1.6-0.1-2.4q-0.1-1.5-0.3-3-0.2-1.3-0.3-2.6-0.2-1.5-0.3-2.9-0.1-1.4-0.2-2.9 0-1-0.1-1.9-0.2-0.9-0.6-1.8c-0.7-1.6-2.2-2.8-3.5-3.9l-0.3-0.2q-1.9-1.6-3.8-3.1l-2.2-1.7-1.9-1.5c-0.8-0.6-1.7-1.3-2.7-1.3-1 0-2.1 0.1-3.1 0.2h-0.4q-1.4 0.2-2.9 0.3l-2.9 0.4q-4.1 0.4-7.9 0.9-3.8 0.5-7.8 1c-3 0.4-6.2 0.9-9.3 1.3-5.1 0.7-10.2 1.4-15.3 2q-1.8 0.2-3.6 0.5-4 0.6-8.1 0.9c-1.3 0-2.5 0.2-3.8 0.3-0.9 0.1-1.8 0.3-2.6 0.3-0.8 0.1-1.7 0.2-2.7 0.2-1.9 0.2-4 0.3-5.9 0.6-1 0.1-2 0.3-2.9 0.7-0.9 0.4-1.7 0.9-2.3 1.7-1.5 1.9-1.1 4.8-0.8 7.2l0.1 0.8c0.2 1.3 0.3 2.7 0.5 4l-1 0.5q-0.9-0.8-1.8-1.6-0.9-0.8-1.9-1.6c-0.8-0.7-1.8-1.4-2.7-2.2-0.7-0.6-1.5-1.2-2.1-1.7q-0.8-0.7-1.7-1.4-0.9-0.6-1.8-1.3c-1-0.8-2.2-1.6-3.4-1.6-3.4 0-6.8 0.4-10.2 0.9q-2.1 0.3-4.3 0.5-1.5 0.2-2.9 0.4c-0.6 0.1-1.2 0.2-2 0.3l-0.6 0.1c-1.1 0.1-2.6 0.3-3.5 0.3h-0.1c-1.5-0.3-2-0.3-3.4-0.1-9.1 1.2-18.4 2.3-27.5 3.7q-2.4 0.2-5 0.5-2.5 0.3-5.1 0.6l-3.1 0.4q-1.5 0.2-3.2 0.5l-0.6 0.1c-1.2 0.1-2.4 0.3-3.4 0.6q-1.1 0.3-1.9 0.9-0.7 0.6-1.2 1.5c-0.9 1.6-0.6 3.4-0.4 5.2 1 6.7 1.5 14 2.7 20.6 0.1 0.7 0.3 1.5 0.4 2.3q0.1 0.8 0.2 1.6l0.1 0.5-1.3 0.3q-0.4 0-0.8 0.1c-1.7 0.1-3.4 0.5-5.2 0.8-2 0.3-4 0.7-6 0.8l-0.5 0.1-0.1-0.5c-0.8-3.9-1.3-7.9-1.7-11.8l-0.4-3c-0.1-0.9-0.3-1.8-0.6-2.6-0.3-0.8-0.7-1.6-1.2-2.2-0.7-0.8-1.5-1.4-2.3-2q-0.6-0.4-1.1-0.9c-0.5-0.3-0.9-0.6-1.3-0.9l-1.3-1.1 0.6-0.4c0.3-0.2 0.5-0.3 0.9-0.4 0.2 0 0.6 0 1 0 1.5 0 2.5-0.1 3.4-0.5 0.9-0.4 1.7-1 2.7-2 0.2-0.3 0.5-0.5 0.7-0.7q0.7-0.7 1-1.4zm-93.5 45.1l-0.1-0.6 6.9-0.7 0.4 0.9 0.2 0.4 0.2 0.5c0.2 0.5 0.4 1.1 0.7 1.6 1 2 3.4 3.8 5.3 5.2 2.6 2.1 5.2 4.3 7.8 6.3q0.3 0.2 0.6 0.4 0.2 0.2 0.5 0.4l0.4 0.2c-0.4 1-0.9 2.1-1.2 3.1-0.2 0.5-0.4 1-0.4 1.5-0.1 0.5 0 1 0.2 1.5 0 0.3 0 0.8 0 1.1q-0.1 0.4-0.2 0.8-0.3 0.8-0.5 1.4c-0.2 0.8-0.5 1.6-0.7 2.5l-0.2 1.2-0.2 0.9-1.1-0.8q-0.6-0.4-1.1-0.8c-0.5-0.4-1.1-1-1.8-1.5-3.6-3-8.4-7.1-12.3-7.1-0.5 0-1 0-1.5 0.1l-0.2-1.7-0.1-1.1c-0.2-2-0.4-4.1-0.7-6.3l-0.1-0.9q-0.3-3-0.6-6.3zm1.2 0.5l0.2 1.5c0.2 2.1 0.4 4.2 0.6 6.4l0.1 0.9c0.3 2 0.5 4.1 0.7 6.3l0.2 1.5h0.4c4.4 0 9.4 4.3 13.1 7.4q0.9 0.8 1.8 1.5 0.2 0.3 0.6 0.5v-0.3c0.2-0.9 0.5-1.8 0.8-2.6q0.2-0.7 0.4-1.3 0.1-0.4 0.2-0.7 0-0.3 0-0.6c-0.2-0.7-0.3-1.3-0.2-1.9 0-0.6 0.2-1.2 0.4-1.9 0.2-0.6 0.7-1.5 0.9-2.1l-0.1-0.1q-0.3-0.2-0.7-0.5c-1.3-0.7-5.7-4.6-7.2-5.8l-0.6-0.4c-1.9-1.6-4.4-3.5-5.6-5.7-0.3-0.5-0.5-1.1-0.7-1.7q-0.2-0.5-0.4-0.9zm215.1 9.6c-0.2-1.7-0.4-3.7-1.1-5l-0.4-0.8 0.9-0.1c1.9-0.2 4-0.5 5.4-0.7l2.4-0.3c1.4-0.2 2.9-0.4 4.2-0.5l1.1-0.2 2.5 19.7-0.7 0.1q-1.1 0.1-2 0.2-1 0.1-2 0.2c-2.6 0.5-5.6 0.7-8.3 1.1l-1.8-12.4q-0.1-0.7-0.2-1.3zm0.3-4.8c0.6 1.4 0.8 3.1 0.9 4.6q0.1 0.7 0.2 1.3l1.6 11.2 7.1-0.9q1-0.1 2-0.2 0.9-0.1 1.6-0.2l-2.2-17.2c-1.5 0.2-2.8 0.3-4.1 0.5l-1.4 0.2-1 0.1c-1.2 0.2-3 0.5-4.7 0.6zm21.2-32.8l-0.3-2.7 1.3-0.1 1.3-0.2 2.7 17.9-3.2 0.4-0.2-2.4q-0.1-0.8-0.2-1.8c-0.4-3.8-0.9-7.5-1.4-11.1zm1-1.6l0.2 1.4c0.5 3.8 1 7.5 1.4 11.1q0.1 0.9 0.2 1.9l0.1 1.2 0.7-0.1-2.3-15.5z"/><path fill-rule="evenodd" class="h" d="m14.7 135.3v-1.4c0.2-2 1.9-2.1 7-2.9 15.6-2.2 31.4-4 47-6 5.5-0.8 5.7-1.9 9.5 1.4 1.8-1.2 1.8-1.2 4-1.2 0-3.9 0.5-5.8 2.6-8 1.7-1.6 3.3-3.1 6-3.7 4.7-1.1 7.4 1.2 10.3 3.4 0.9 0.7 1.7 1.4 2.6 1.9 1.6-0.4 2.5-1.9 3.7-2.9 1.4-1.4 2.5-1.5 4.4-2.3 1-0.3 1.4-0.7 2.2-1.1 4.3-2.2 4.5-1.5 8.4-4.6 5.8-4.5 10.1-4.9 14.4-8.4l6.6-3.3c1.2-0.3 1.7-0.1 2.6-0.8 1.8-1.3 2.7-1.1 4.9-1.7 4.8-1.2 6-2.1 9.8 0.8l7.3 5.7c7.4 5.6-1.2 7.4-4.1 8.9 0.3 1.3 0.4 2.1-0.5 3.1l-0.7 0.6c-1.3 1.4-1.7 1.8-4.2 1.8-4.8-0.1-3.4 2.7-7.3 2.7l2.8 2.3c1 0.9 1.9 1.5 2.9 2.3 2.8 2.2 3.8 2.2 4.3 6 0.7 5.5 1.5 12.2 2.7 17.6 4.5 0 9.5-1.4 13.9-1.8 1.5-0.2 3.2-0.6 4.6-0.7 0-2-0.7-4.9-0.9-6.9l-2.6-20.1c-0.4-2.7-0.9-4.7 1.6-5.4 2-0.6 18.4-2.5 20-2.7l27-3.5c2.3-0.3 1.8-0.4 3.2 0 1.2 0.2 8.2-0.9 9.8-1.1 4.8-0.5 9.4-1.4 14.2-1.4 1 0 8.9 6.6 10.2 7.7 1.9 1.5 3 2.6 4.7 4.3 1.3 1.3 3.2 3.4 4.5 4.3 0-3.9-0.6-9.1-1.1-12.8-1-7.5-0.2-6.7 12.3-7.8 2.1-0.1 4-0.5 6.3-0.6 3.8-0.2 8.1-1 11.9-1.4 4.9-0.6 44.7-6.1 49.3-6.1 0.2 0 8.2 6.3 9 7 4.7 3.8 3.1 2.8 4.1 12 0.9 8.4 2.2 9.1-4.4 9.9-4.6 0.6-9.6 0.6-14.1 1.6 0 5.6 1 11.8 1.5 17.6 0.1 1.5 0.6 3.9 0.6 5.4 1.5 0 4.1-0.6 5-0.4 1.3 0.2 8.1 6 9.7 7.3 0.6 0.5 1.1 0.8 1.7 1.3 0.8 0.6 0.8 0.5 1.1 1.6 0.4 1.3 0.5 3.3 0.7 5 0.4 3 1.2 6.6 1.2 10.1 0 0.2-0.7 0.8-0.9 1.2 2.6 1.7 2.3 4.7 2.4 7.6 0 1.4 0.2 3.2 0.4 4.7 0.3 2.1 0.2 2-0.7 3.7 1.5 1.1 1.6 2 1.8 4.3 0.2 1.8 0.4 3.4 0.7 5.4 0.3 2.5 2.1 7.7-1.5 8.6l-21 2.6c-9 0.8-17.7 1.8-26.8 3.2-1.3 0.2-1.4 0.3-2.4 0.6-3.3 0.9-30.2 4-34.1 4.4-2.2 0.2-13.9 2.3-15.6 1.4-1.7-0.9-8.4-6.5-10-7.9-1.7-1.3-1.7-1.4-2-4-0.2-1.4-0.5-3.6-0.7-5-2.6-17.6 0.6-12.1-9.8-12.1 0.1 2 0.4 4.4 0.7 6.6l2 19.5c0.7 7.5-0.3 6-12.9 8-6.3 1-5.7 1.9-10.1-1.6-2-1.6-8.4-5.9-9-8l-2.8-19.9-20.3 2c-2.2 0.3-4.7 0.7-6.6 0.7 0.3 0.8 1.2 11.4 1.4 13.1 2.2 20.7 3.3 18.5-5.3 19.9-2.1 0.4-4.1 0.7-6.3 1-5.8 1-5.8 1.9-10.5-1.9-1.3-1-2.5-2.1-3.9-3-0.2 0.9-0.4 1.2-0.7 2-0.6 2 0.4 4.9-2.9 4.9-5.1 0-11.1-7.7-15.4-10l-3.8-2.5c-0.8-0.6-1.1-1-1.9-1.5-0.7-0.3-1.5-0.5-2.2-0.8l-8.2-4.2c1.5 6.2-0.7 4-1.2 6 0.1 1.4 0.9 3.4 0.9 4.6l-0.6 4.2c-0.1 1.8-0.4 0.6 0.2 1.6 2.2 3.4-0.7 5.4-3.7 6.7-9.5 3.9-6.1 0.2-10.9-0.5-3.4-0.6-5.3-3-7.8-5-1.2-0.8-2.2-2.1-3.5-2.5-1.6 3.2-1.3 8-10.3 12.1-2.6 1.1-6.2 1.2-9.5 1.7l-19.6 2.5c-3.4 0.4-6.6 0.9-9.7 1.2-1.8 0.2-3.4 0.5-5.1 0.7-7.5 0.8-5.2 1-11.3-3.8-5.9-4.6-6.5-3.8-7.2-9.6l-4.9-39.3c-0.3-3.3-2-6.9 2.4-7.6l14.6-1.8c-1.6-2.4-1.9-0.3-2.5-4.7-0.3-2.2-0.6-3.9-0.9-6.1-0.5-3.8-1.4-8.3-1.7-12.2-0.8 0.4-5.3 0.7-6.6 1-3.6 0.5-5.3-2-9.4-5.3-0.8-0.6-1.4-1.1-2.2-1.7-0.8-0.6-1.4-1-2-1.6-1.7-1.7-1.4-3.1-1.6-6-0.5-5.1-1.1-8.2-1.2-10.2zm81.5 69.9c-0.3 1.3-0.7 2.2-0.7 3.5q3.1 2.1 5.1 5.2c1.2-0.9 1.8-1.9 2.2-3.3-1.1-1.6-2.7-2.5-3.8-4.1-0.5-0.6-1.1-2-1.3-2.6l-1-2.7c-0.1 0.9-0.4 3.2-0.5 4zm61.7-4.6c-0.1-1.2-0.3-0.8-0.3-2.2h-2.2zm-18.4-7.7q0.1-0.1 0.2-0.1h0.1c0.2-0.1-0.5-0.8-0.3 0q0 0 0 0.1zm-67.2-14l3.9-0.4c3.6 0 9.6 5.7 12.5 8.1 0.8 0.7 1.5 1.1 2.3 1.7 2.4 2.1 2.3 2.6 3.7 4.2 0-10.2 2.1-10 2.1-14 0-1.5-0.6-0.5 0-2.3l2.4-5.8c-1.9 0-2.3-0.2-3.5-1.1l-7.2-5.8c-6.8-5.2-4.4-4-7.5-9.8l-10.8 1.2c0 5.3 2.1 18.9 2.1 24zm194.8-29.9c0.2 1.8 0.7 4.2 0.7 5.6 7.6 0 3.9-2.1 12.4 4.6 6.6 5.3 5.7 3.3 6.7 10.3l2.1 14.8 10.8-1.3c5-0.8 7.1-0.3 7-1.9l-2.9-23.4c-3.1 0-17.3 2.4-18.8 1.8-0.9-0.3-1.4-1-2.1-1.5-0.7-0.5-1.2-0.9-1.9-1.5-7-5.7-5.3-3.5-11.2-10-1-1-2.5-2.6-3.6-3.4 0.3 1.9 0.5 3.8 0.8 5.9zm42.5-7.4c0.7 6.1 0.1 6.9 2.3 6.6l8-1.1c-0.8-1.3-1.2-0.7-1.8-1.9l-3-20.8c-1.7 0.4-5.6 0.9-7.6 0.9 0.7 5.3 1.5 11 2.1 16.3z"/><path fill-rule="evenodd" class="i" d="m196.8 183.5q-0.2 0.1-0.5 0.1l-17.1 1.9 2.9 29.5c0.1 1.3-0.8 2.5-2.1 2.7l-16.7 2.6q-1 0.2-1.9-0.4-0.8-0.7-1-1.7l-4.1-29.5-17.3 2.2q-1 0.1-1.9-0.6-0.8-0.6-0.9-1.7l-1.6-15c-0.2-1.4 0.8-2.6 2.2-2.8l57.4-7.4q0.7-0.1 1.4 0.2 0 0 0.1 0l57.5-7.4q0.4-0.1 0.8 0 0.6-0.4 1.3-0.5l17.5-1.4c1.3-0.1 2.5 0.8 2.7 2.1l4.4 29.2 27.1-3.6-4-30.2c-0.2-1.3 0.8-2.6 2.2-2.8l48.5-6.4c1.4-0.1 2.7 0.8 2.8 2.2l1.8 13.5c0.2 1.2-0.6 2.3-1.7 2.7q1-0.1 1.8 0.6 0.8 0.6 0.9 1.7l1 11.1c0.1 0.9-0.4 1.8-1.1 2.3 0.9 0.3 1.7 1.1 1.8 2.1l1.7 13.4q0.1 1-0.5 1.8-0.7 0.8-1.7 1l-48.6 5.8q-0.3 0.1-0.7 0c-0.3 0.4-0.8 0.6-1.4 0.7l-47.5 6c-1.4 0.2-2.6-0.8-2.8-2.1l-4-29.1q-0.1 0.1-0.2 0.1l-17.2 1.8 2.9 29.6c0.2 1.3-0.8 2.5-2.1 2.7l-16.6 2.6q-1.1 0.1-1.9-0.5-0.8-0.6-1-1.6l-4.1-29.6-17.3 2.2q-0.6 0.1-1.2-0.1zm96.4-86.3q0.5-0.3 1-0.3l57.5-7.4q1-0.2 1.8 0.5 0.9 0.7 1 1.7l1.5 15.2c0.1 1.4-0.9 2.6-2.3 2.8l-17.1 1.8 2.9 29.6c0.1 1.3-0.8 2.5-2.1 2.7l-16.6 2.6q-1.1 0.2-1.9-0.5-0.9-0.6-1-1.6l-4.2-29.6-16.9 2.2 3.6 28.7q0.2 1.1-0.5 1.9-0.6 0.8-1.6 1l-22.6 2.6c-0.8 0.1-1.5-0.1-2.1-0.7l-18.4-19.1 2.5 19.5c0.2 1.4-0.8 2.7-2.1 2.8l-16.9 2.4q-0.6 0.1-1.2-0.1-0.5 0.5-1.3 0.6l-48.6 5.9c-0.6 0.1-1.1-0.1-1.6-0.3-0.4 0.3-0.8 0.5-1.4 0.6l-47.5 6c-1.4 0.2-2.6-0.8-2.8-2.1l-1.5-10.8c-0.5 0.5-1.2 0.8-1.9 1.1q-0.1 0.7-0.4 1.3 0.2 0.4 0.2 0.9 0 0.3 0 0.7 0.1 0.6 0 1.1 0.1 0.6 0.1 1.2c0 0.2 0 0.5 0 0.7 0 0.3 0.1 0.6 0.1 0.9 0 1 0.2 2 0.2 3 0 0.9 0.2 1.6 0.1 2.6-0.1 0.5 0 0.9-0.1 1.4-0.1 0.6-0.2 1.2-0.4 1.9q0 0.1 0 0.2c-0.2 1-0.1 1.8-0.4 2.9q0 0.1 0 0.3c-0.1 0.4 0 0.7-0.1 1 0 0.6-0.1 0.9-0.3 1.4 0 0.3 0 0.7 0 1 0 0.7-0.2 1.4-0.4 2.1-0.3 1.5-0.9 3.3-1.5 4.8q0.3 0.2 0.6 0.4c0.9 0.6 1.6 1.3 2 2.3 0.3 0.1 0.6 0.3 1 0.6 0.3 0.3 0.5 0.6 0.6 0.8 0.8 0.3 1.6 0.8 2.2 1.4 0.5 0.5 0.7 0.8 0.9 1.3q0.1 0 0.1 0.1c0.5 0.2 1 0.4 1.5 0.7 1.1-0.7 2.2-1.1 3.5-0.9q0.9 0.3 1.5 0.9 0.9-0.1 1.7 0 0.3 0.1 0.6 0.1 0.3 0 0.6 0 0.6 0 1.1 0.1c0.6-0.5 1.4-0.8 2.2-0.6 0.7 0.1 1.1 0.4 1.6 0.9 1.4 1.5 2.2 3.1 2.8 5.1q0.4 1.6 0.7 3.3c0 0.4 0 0.9 0.1 1.3q0.1 0 0.1 0.1l0.3 1.4q0 0.1 0 0.2c0 0.4 0.2 0.9 0.3 1.3 0.2 1 0.5 2.6 0.5 3.5 0 0.2 0.1 0.5 0.1 0.7 0.1 1.4 0.1 2.7-0.3 4.1-0.1 0.6-0.4 1.3-0.8 1.9 0.1 0.4 0.1 0.8 0.2 1.4 0.1 1.3-0.8 2.5-2.2 2.7v0.1c-0.7 0-1.4 0-2.1-0.2q-1.1-0.3-2.1-0.9c-0.9-0.3-1.5-1-1.6-2-0.1-0.2-0.1-0.5-0.2-0.7q-0.1-0.1-0.2-0.2-0.6-0.9-0.9-1.8c0-0.3-0.1-0.6-0.2-0.8q-0.1-0.2-0.2-0.4 0 0-0.1 0-0.6-0.4-1-0.9c-0.2-0.1-0.3-0.4-0.4-0.5-0.5-0.4-0.8-0.9-1.1-1.3q-0.4-0.1-0.8-0.3-0.3-0.2-0.6-0.5c-0.4 0.1-0.8 0.1-1.3 0.1-1.5 0.8-3.6 0.4-5-0.6-0.7-0.6-1.2-1.2-1.7-1.8-0.2-0.2-0.8-1-1-1.1-0.8-0.3-1.7-0.3-2.5-0.6-0.6-0.2-1.1-0.5-1.6-0.8-0.9-0.4-1.7-1-2.5-1.4-0.8-0.5-1.7-0.7-2.6-1.1q-1.5-0.7-2.9-1.6 0.2 0.2 0.3 0.4c0.7 1 0.6 1.7 0.8 2.7 0.1 1-0.3 1.9-1 2.4q-0.2 0.1-0.3 0.2c-0.2 0.3-0.3 0.5-0.5 0.7q0 0.1-0.1 0.1 0.1 0.3 0.2 0.7l0.3 1.4c0.4 1.3 0.6 2 0.3 3.4q-0.1 0.1-0.1 0.2l-0.2 0.6c-0.1 0.7-0.1 1.7-0.1 2.4q0 0.3-0.1 0.6 0 0.1 0 0.1l-0.1 0.4c0.6 0.5 1 1 1.1 2 0.2 1 0 2-0.6 2.8-0.7 0.8-1.2 0.8-1.9 1.3-1.8 1.2-5.4 2.4-7.6 2.7-1.6 0.2-2.3-0.9-3-1.8q-0.1-0.1-0.1-0.1-0.3-0.2-0.6-0.3c-0.2 0-0.5 0-0.6 0-2.8 0-3.2-0.3-4.8-2.3-0.8-0.8-1.3-1.2-1.4-2.5q-0.2-1.1 0-2.1c0.1-0.6 0.2-1.1 0.5-1.5l0.3-0.8q0.1 0 0.1-0.1c0.3-0.7 0.5-1.2 1.2-1.7 0.3-0.7 0.7-1 1.3-1.5q0.1-0.1 0.2-0.3 0-0.2 0.1-0.5 0.1-0.7 0.6-1.2c-0.5-0.4-0.9-0.8-1.3-1.3l-1.1-1c-0.5-0.4-1-0.8-1.4-1.3-1.4-1.7-2.3-5.7-3-7.9-0.5-1.7-1.1-3.7-1.4-5.5-0.1-0.9-0.1-1.9-0.1-2.8 0-0.5 0-1.1-0.1-1.6q-0.2-0.9 0-1.8c0.1-0.6 0.3-1.1 0.4-1.7 0.2-0.8 0.5-1.6 0.7-2.4 0.2-0.5 0.5-1.5 0.5-2 0.1-0.9 0.3-1.3 0.5-2.1q0-0.3 0.1-0.5-0.1-0.2-0.1-0.3c-0.3-0.9-0.3-1.8 0.2-2.6h0.1q0-0.1 0-0.1l0.2-0.8c0.2-0.7 0.4-1.1 0.7-1.7 0.2-0.6 0.4-1 0.7-1.6l1.6-4.4c0.1-0.2 0.1-0.6 0.1-0.8 0.2-0.6 0.4-0.9 0.7-1.4l0.2-0.7c0.2-0.7 0.4-1.4 0.8-1.9l0.1-0.1q0.1-0.3 0.2-0.7c0.3-0.8 0.7-1.3 1-1.9 0-0.6 0.1-1.2 0.4-1.8q0.2-0.4 0.5-0.7 0 0 0-0.1 0 0 0-0.1c0-0.5 0-0.8 0.1-1.1l-0.1-0.2q-0.5-0.2-0.9-0.5-0.1 0-0.2 0l-0.3-0.2q-0.7-0.2-1.2-0.8 0 0-0.1 0-0.2-0.1-0.4-0.2l-2.9-1q0 0-0.1-0.1 0 0.7-0.3 1.4c-0.4 0.7-1.1 1.2-1.9 1.3l-0.5 0.1c-0.2 0.4-0.4 0.8-0.6 1.1q-0.2 0.3-0.4 0.7c-0.6 0.9-1.2 1.8-2 2.5-0.6 0.5-1.3 1-2 1.4-1.2 0.6-2.7 1-4 0.4-1.4-0.6-2.4-2.1-3.3-3.3-0.4-0.7-0.8-1.5-1.1-2.3q-0.6-1.7-1.3-3.4c-0.7-1.4-1-2.6-1.4-4.2q-0.2-0.6-0.3-1.2c-0.1-0.9-0.4-1.8-0.7-2.7l-0.2-0.7q-0.1-0.1-0.2-0.1c-0.4 0.4-0.9 0.7-1.5 0.7l-17.2 1.9 2.9 29.5c0.2 1.3-0.8 2.5-2.1 2.7l-16.6 2.6q-1.1 0.2-1.9-0.4-0.8-0.7-1-1.7l-4.1-29.5-17.3 2.2q-1.1 0.1-1.9-0.6-0.8-0.6-0.9-1.7l-1.7-15c-0.1-1.4 0.9-2.6 2.2-2.8l57.5-7.4q1-0.1 1.9 0.5 0.8 0.7 0.9 1.8l0.1 1.3q0.1 0 0.2 0 0.2 0 0.5 0c0.3-1.4 1.1-2.5 2.7-2.8q0.9-0.1 1.6 0.3c-0.1-1-0.1-1.9 0.1-3q0-0.3 0.1-0.6c0-0.4 0-0.7 0.1-1.1 0.3-1.5 1.3-2.5 2.4-3.5l0.7-0.7c0.5-0.6 1.3-1.2 2-1.6 1.7-1.1 4-1.8 6-1.6q0.4 0 0.8 0.1c0.7 0.1 1.3 0.4 2 0.6 0.3 0.1 0.6 0.2 1 0.3 0.8 0.3 1.4 0.9 1.8 1.6 0.3 0.2 0.6 0.5 0.8 0.8 0.2 0.2 0.3 0.5 0.5 0.7q0.1 0.1 0.2 0.2 0.7 0.7 1 1.6 0.1 0.5 0.1 0.8c0.5-0.4 1-0.6 1.6-0.9q0.3-0.2 0.7-0.3 0-0.1 0.1-0.1c0.3-0.3 0.7-0.5 1.1-0.6 0.5-0.6 1-1 1.5-1.5 0.3-0.4 0.4-0.6 0.8-0.9 0.8-0.7 1.1-1 2.2-1.2 0.8-0.3 2.1-0.8 2.8-1.2 0.9-0.5 1.9-1 2.9-1.4 0.4-0.1 0.7-0.4 1-0.5q0.3-0.2 0.5-0.3 0.4-0.2 0.7-0.3c0.8-0.5 1.4-0.8 2.3-0.9 0.8-0.5 1.9-1.5 2.5-2q0.3-0.3 0.6-0.5 0.2-0.2 0.5-0.4 0.3-0.2 0.6-0.5c1.3-0.9 2.5-1.6 3.9-2.2l5.7-2.8c0.7-0.3 1.4-0.6 2-0.9 0.3-0.6 0.6-1 1.2-1.3 0.4-0.3 0.7-0.3 1-0.4q0.1-0.1 0.3-0.1 0.1 0 0.2-0.1c0.8-1 1.7-1.2 2.9-1.4 0.9-0.8 1.6-1.2 2.9-1.2 0.4-0.1 0.8-0.2 1.2-0.2q0-0.1 0.1-0.1c0.2-0.3 0.5-0.6 0.8-0.8 1.1-0.6 2.4-0.8 3.6-1 0.7-0.1 1.3-0.4 2.1-0.5q0.3-0.1 0.6-0.1 0 0 0.1 0c0.4-0.2 0.8-0.4 1.3-0.5q0.2-0.1 0.5-0.1 0.5-0.1 1.1 0 0.2-0.1 0.4-0.1c1.7-0.3 3.7 0.4 4 2.4 0.1 0.9-0.2 1.8-0.7 2.5-0.8 1-1.5 1.1-2.5 1.4-0.5 0.4-1.1 0.6-1.7 0.8-0.4 0.1-0.7 0.3-1.1 0.5-0.2 0.1-0.4 0.2-0.6 0.4q-0.1 0.1-0.3 0.1 0.2 0.4 0.2 0.8c0.2 0.9-0.1 1.7-0.8 2.2q-0.2 0.3-0.5 0.5c-0.3 0.6-0.8 1.1-1.4 1.4-1.2 0.6-1.7 0.2-2.6 0.3-0.8 0.2-1.5 0.2-2.2 0.2-0.4 0.2-0.7 0.4-1.1 0.5q-0.3 0.2-0.5 0.4-0.1 0-0.1 0.1-0.5 0.6-1.2 0.9-0.6 0.6-1.6 0.7-0.6 0.1-1.2 0c-0.4 0.2-1.2 0.9-1.5 1.2-0.5 0.3-0.8 0.6-1.2 0.9q-0.1 0-0.1 0.1l-1.5 1c-0.6 0.4-1.2 0.9-1.7 1.4q-0.4 0.3-0.8 0.6-0.3 0.2-0.6 0.5c-1.7 1.1-3.1 2.4-5 3.1-0.7 0.3-1.4 0.6-2 1l0.4 1.7c0.3 1.2 0.5 2.3 0.1 3.5-0.5 1.1-2.2 2.8-3.4 3.6-0.3 0.6-0.8 1.4-1 1.8 0.2 1.4 0.3 1.7 0.9 3q0.3 0.6 0.5 1.2 0.5 0.3 0.8 0.7c0.5 0.8 0.9 1.7 1.3 2.5q0.6 1.1 1.2 2.2c0.5 1.1 1.1 2.2 1.7 3.2 0.6 1.2 1.2 2.3 1.7 3.4 0.6 1.1 1.2 2.1 1.7 3.1l-4-28.7q-0.1-1.1 0.6-2 0.7-0.8 1.7-0.9l17.5-1.4c1.4-0.1 2.5 0.8 2.7 2.1l4.4 29.3 27.8-3.8-3.8-29.7c-0.2-1.4 0.7-2.6 2.1-2.8l48.6-6.4c0.6-0.1 1.3 0.1 1.8 0.4q0.4-0.2 0.9-0.2l21.7-2.6c0.8-0.1 1.5 0.2 2.1 0.8l18.7 18.7-1.8-19.7c-0.2-1.4 0.8-2.6 2.2-2.8l16.8-1.9q0.8 0 1.4 0.3zm-208.5 103c11.9 8.1 11.1 24.9-3.6 30q-0.3 0.1-0.5 0.2l-46.5 5.9q-1 0.1-1.9-0.5-0.8-0.7-0.9-1.7l-5.9-47.3q-0.2-1 0.5-1.9 0.6-0.8 1.7-0.9l47-5.5q1.4-0.1 2.7 0.2c4.2 1 6.9 4.9 8 8.8 1.1 4.2 0.8 8.7-0.6 12.7zm4.3-63.6q-0.1 0.4-0.2 0.8c-0.2 0.6-0.5 1.2-1 1.7q-0.2 0.6-0.7 1-0.3 0.3-0.6 0.6 0.1 0.3 0.3 0.6 0.1 0.2 0.3 0.4l1-2.3q0.1-0.2 0.2-0.4c0.2-0.3 0.3-0.6 0.5-0.9q0.2-0.7 0.8-1.3 0.1-0.1 0.2-0.3-0.1-0.1-0.2-0.2-0.1 0-0.1 0-0.2 0.2-0.5 0.3z"/><path fill-rule="evenodd" class="j" d="m154 95.6c0.2 0 0.5-0.2 0.6-0.2 0.5-0.1 0.1 0.2 0.7 0.1 0-0.2-0.1-0.1 0.1-0.1v-0.2c0.2 0.1 0.2 0.2 0.6 0.1 0.2-0.1 0.3-0.1 0.6-0.1 0.4-0.1 1 0 1.1 0.2 0 0.3-0.1 0.5-0.2 0.7-0.4 0.5-1 0.4-1.5 0.6-0.3 0.1-0.3 0.3-1.5 0.7-0.4 0.1-0.7 0.3-1.2 0.5-0.4 0.2-0.6 0.4-1 0.6-0.5 0.3-1 0.4-1.2 0.6-0.1 0.1-0.3 0.2-0.4 0.4-0.9 0.8-1.2 0.3-1.2 1.1 0.5 0.2 0.7 0.2 1.2 0.1 0.1 0.5 0.3 0.9 0.3 1.3-0.2 0.2-0.2 0.1-0.5 0.2-0.5 0.3-0.4 0.5-0.6 0.9-0.3 0.8-0.8 0.3-2.1 0.5-0.6 0.1-1.3 0-1.9 0-1.6 0-1.1 0.3-1.4 0.6-0.2 0.1-0.5 0-0.9 0.2-0.1 0.2-0.3 0.5-0.5 0.5-0.8 0.1-1.1-0.2-0.9 0.4 0 0.1 0 0.2 0 0.4-0.2 0-0.5 0.1-0.7 0.1 0 0.2-0.2 0.4-0.3 0.5-0.4 0.1-0.8-0.1-1.2 0-0.9 0.1-2.1 1.1-2.8 1.7-0.4 0.3-0.7 0.6-1.1 0.9l-1.5 1c-0.7 0.5-1.4 1.1-2 1.6q-0.3 0.3-0.6 0.5c-0.2 0.1-0.4 0.3-0.6 0.4-1.4 1-2.9 2.3-4.4 2.9-1.1 0.4-1.8 0.8-2.8 1.4-1.3 0.7-1.2 0.6-1 1.7q0.1 0.4 0.2 0.8l0.5 1.8c0.1 0.5 0.4 1.3 0.1 1.8-0.2 0.7-2 2.3-2.7 2.7-0.4 0.2-0.5 0.5-0.6 0.9-0.4 1.1-1.3 1.9-1.2 3.1 0.3 1.9 0.4 2.1 1.1 3.7q0.6 1.4 1.2 2.7c0-0.1 0 0 0-0.1v-0.2l0.3-0.1c0.3 0.5 0.9 1.7 1.2 2.3q0.6 1.1 1.1 2.2 0.9 1.6 1.8 3.3c0.6 1 1.2 2.3 1.7 3.3 0.8 1.5 1.6 2.9 2.4 4.4 0 0.1 0 0.2 0.1 0.3 0.1 0.1 0.1 0.2 0.1 0.3 1.2 2.2 1.2 2.3-0.9 3.1q-0.6 0.3-0.9 0.6c-0.6 0.8-0.3 0.5-0.2 0.9 0 0.4-0.2 1-0.6 1.1 0.1 0.4 0.1 0.1 0 0.6l-0.1 0.3c0.1 0.3 0.2 0.1 0.2 1 0.1 0 0.1 0 0.2 0q0 0.5-0.3 0.6c0.1 0.2 0.2 0.3 0.3 0.5-0.1 0.2-0.4 0.4-0.5 0.6 0.1-0.1 0.1-0.1 0.3-0.1 0 0.2 0 0.4 0.1 0.5 0.4 0.6 0.1 0.9 0.2 1.6 0 0.3 0.1 0.6 0.1 0.9 0 0.8 0.2 2.2 0.2 2.9 0 0.7 0.2 1.6 0.1 2.3-0.1 0.9 0 0.8-0.1 1.3 0 0.6-0.2 1-0.3 1.6-0.3 0.9 0 1.7-0.4 3.2-0.2 0.9-0.1 0.9-0.2 1.7 0 0.4-0.1 0.5-0.2 0.7-0.2 0.6-0.1 1.1-0.1 1.8 0 0.5-0.2 1.1-0.3 1.6-0.4 1.4-1 3.7-1.7 5-0.3 0.8-0.4 1.3-1.5 1.5-0.1 0.2-0.2 1-0.1 1.2 0.5 0.1 1-0.3 1.5-0.4 0.9-0.1 1.4 0.2 2 0.6 0.6 0.4 0.9 0.9 1.2 1.5 0.4 1.1 0.8 0.6 1.3 1.2 0.4 0.3 0.3 0.4 0.5 0.8 0.1 0.4 0.5 0.3 0.8 0.4 0.6 0.2 1.2 0.6 1.6 1 0.3 0.2 0.3 0.4 0.5 0.8 0.1 0.2 0.1 0.2 0.3 0.4 0.2 0.1 0.5 0.3 0.7 0.5 0.7 0.3 1.4 0.5 2.1 1 0.2 0.1 0.6 0.3 0.7 0.5 0.2 0 0.3-0.2 0.4-0.3 0.7-0.5 1.6-1.3 2.5-1.1 0.2 0.1 0.6 0.4 0.6 0.7l0.1 0.7q0.1-0.1 0.3-0.2c0.6-0.5 1.8-0.3 2.5-0.3 0.3 0.1 0.4 0.1 0.7 0.1 0.2 0 0.5 0 0.8 0 0.6 0 0.5 0.1 0.8 0.4 0.1 0.2 0.1 0.1 0.3 0.2 0-0.3 0-0.2 0-0.4 0.2 0 0.3 0.1 0.5 0.1 0.2 0 0.3-0.1 0.5-0.1 0.6-0.2 0.5-0.3 0.6-0.8 0.1 0.1 0.2 0.1 0.2 0.2 1.2 1.2 1.8 2.4 2.3 4.1q0.3 1.4 0.6 2.9c0 0.5 0.1 1.2 0.2 1.6l0.3 1.4c0.1 0.5 0.2 1.1 0.3 1.5 0.1 0.5 0.5 2.6 0.5 3 0 0.3 0.1 0.6 0.1 0.8 0 1.1 0 2.3-0.2 3.4-0.1 0.3-0.3 0.7-0.5 1 0 0.1-0.1 0.2-0.2 0.2-0.1 0.2-0.3 0.2-0.5 0.4-0.1 0.1 0 0-0.2 0.1 0.1 0.4 0.3 0.9 0.5 1.2 0.2 0.5 0.1 0.8 0.2 1.3q-0.6 0-1.1-0.1-0.9-0.3-1.7-0.7c-0.1-0.1-0.1-0.1-0.3-0.1-0.1-0.7-0.1-1.2-0.3-1.7-0.2-0.3-0.3-0.3-0.5-0.5-0.4-0.6-0.6-1.5-0.9-2.1-0.4-1-0.4-1.1-1.3-1.5-0.4-0.3-0.4-0.6-0.9-1-0.5-0.5-1.1-1.5-1.2-1.6-0.3-0.3-0.7-0.5-0.7-0.6-0.2-0.1-0.1-0.1-0.3-0.2-0.1 0-0.2 0.2-0.2 0.4-0.1-0.1-0.1-0.2-0.2-0.4-0.3-0.4-0.8-0.5-1.3-0.4-0.2 0-0.3 0-0.5 0-0.4 0.1-0.7 0.1-1.1 0.1-0.7-0.2-0.3-0.2-0.9 0.2-0.8 0.5-2 0.1-2.6-0.3-0.5-0.4-0.9-0.9-1.3-1.4-0.6-0.8-1.2-1.6-2.1-1.9-0.8-0.2-1.7-0.3-2.5-0.6-0.5-0.2-0.9-0.4-1.3-0.6-0.8-0.4-1.6-1-2.4-1.4-0.9-0.5-1.8-0.8-2.7-1.2q-1.7-0.7-3.3-1.8-0.2-0.1-0.4-0.3c-0.7-0.4-1.3-0.8-1.9-1.2l-3-2.4q-0.2-0.1-0.3-0.3c-0.4-0.3-0.7-0.7-0.9-1.1-0.7-1.2-1-1.7-0.9-2.9 0-0.3 0-0.5 0-0.7 0-0.3 0-0.6 0-0.8 0-0.3-0.1-0.5-0.1-0.8 0-0.6-0.1-1-0.1-1.6 0-0.4 0-1-0.1-1.5-0.1 0.1-0.2 0.4-0.3 0.6-0.5 1.3-1 2.6-1.6 3.9-0.1 0.2-0.1 0.2-0.2 0.3-0.1 0-0.8 0.1-1 0.1 0.1 0.2 0.8 0.4 0.6 1.5-0.2 1.2-0.7 0.9 0 2.5 0.2 0.5 0.1 0.3 0.2 0.8 0.1 0.8 0.2 0.9 0.8 1.6 0.7 0.7 0.6 1.7 0.6 2.6 0 0.5 0.4 0.7 0.5 1.1 0.5-0.1 0.7-0.2 1.2-0.3 0.5-0.1 1.4 0.1 1.8 0.2 0.7 0.2 0.9 0.4 1 1.2 0.2 0.8 0.5 1.1 1.2 1.4 0.8 0.4 0.7 1.4 0.8 2.1-1.2 0.8-0.7 0.7-1.2 1.3-0.2 0.1-0.3 0.3-0.5 0.4-0.2 0-0.3 0-0.4-0.1q0 0.5 0.1 0.9c0.1 0.6 0.2 1.1 0.3 1.6l0.4 1.7c0.2 0.9 0.4 1.2 0.2 2.1l-0.2 0.7c-0.2 0.5-0.2 2.2-0.2 2.9q0 0.2-0.1 0.3l-0.1 0.7c0 0.1 0 0.1 0 0.2l-0.1 0.2q-0.1 0-0.1 0c-0.3 1.5 1.3 1.5 1.4 2.2 0.1 1.2-0.5 1.1-1.4 1.7-1.5 0.9-5 2-6.6 2.3-0.1 0-0.7-0.8-0.8-0.9-0.3-0.4-0.5-0.6-0.8-0.8-0.2-0.1-0.1-0.1-0.3-0.1-0.3-0.1-0.5-0.2-0.8-0.3-0.4-0.1-0.9-0.1-1.3-0.1-2.1 0-1.8-0.1-2.9-1.4-0.3-0.4-0.8-0.6-0.9-1.2 0-0.5 0-1 0.1-1.4 0-0.2 0-0.4 0.1-0.5 0.1-0.1 0 0 0.1-0.2l0.4-1c0.2-0.3 0.3-0.6 0.5-0.7 0.1 0.2 0.2 0.1 0.2 0.5 0.2-0.1 0.3-0.1 0.4-0.3 0.1 0 0.2-0.3 0.2-0.3 0.1-0.3-0.3-0.2-0.1-0.8 0.2-0.4 0.3-0.4 0.6-0.7 0.3-0.1 0.4-0.4 0.8-0.4-0.1-0.4 0-0.5 0.1-0.7 0.5-0.8 0.2-0.6 0.3-1.1 0.1-0.3 0.3-0.1 0.5-0.3 0 0 0.4-1 0.5-1 0.1-0.4 0.1-0.8 0-1.3-0.1-0.6-0.4-0.4-0.9-0.8q-0.8-0.8-1.5-1.5l-1.1-1c-0.4-0.4-0.8-0.7-1.1-1.1-1-1.2-2.1-5.4-2.5-7-0.4-1.4-1.2-3.9-1.4-5.1-0.2-2 0-3.3-0.2-4.5-0.1-0.4-0.1-0.7 0-1 0.1-0.5 0.3-1.1 0.4-1.6 0.3-1.3 1.2-3.9 1.2-4.8 0.1-0.9 0.3-0.9 0.4-1.6 0.1-0.5 0.1-0.5 0.4-0.7-0.1-0.3-0.1-1.1-0.3-1.3-0.1-0.2-0.1-0.1-0.1-0.2-0.1-0.2-0.1-0.3 0-0.5 0.1-0.1 0.1-0.1 0.2-0.2 0.1-0.1 0-0.2 0.1-0.3 0-0.1 0 0 0-0.1l0.3-1.1c0.1-0.7 0.5-1 0.6-1.4 0.2-0.9 0.5-1 0.6-1.4l1.7-4.6c0.1-0.3 0.1-0.6 0.2-1 0.1-0.5 0.3-0.6 0.5-1l0.3-1c0.1-0.2 0.3-0.9 0.4-1.1l0.3-0.3c0.1-0.2 0.2-0.2 0.3-0.3-0.1-0.6-0.1-0.5 0.1-0.9 0.2-0.7 0.7-1.2 1-1.9q0.1-0.1 0.2-0.3c0.1-0.4-0.2-0.6 0-1.1 0.2-0.3 0.5-0.6 0.7-0.9 0.1-0.1 0.2-0.1 0.3-0.2-0.2 0-0.2 0-0.3-0.1 0.1-0.3 0-0.4 0.3-0.7 0-0.1-0.1-0.2-0.2-0.4 0-0.4 0.5-1 0.3-1.9 0-0.1-0.3-0.3-0.4-0.4l-0.8-0.7c-0.1-0.1-0.2-0.2-0.4-0.3-0.3-0.1-0.6-0.3-0.9-0.5l-0.7-0.4c-0.2-0.1-0.1-0.1-0.3-0.1-0.1-0.2-0.2-0.2-0.3-0.3-0.7-0.3-0.5-0.3-1.2-0.5l-3-1.1c-0.1-0.1-0.2-0.1-0.4-0.2-0.2-0.1-0.5-0.2-0.8-0.3-1.3-0.6-0.7-0.1-1.4 0.2l0.1 0.3c-0.4 0.1-0.6 0.4-0.8 0.7-0.2 0.3-0.4 0.7-0.4 1.2 0.1 0.5 0.1 0.3 0.3 0.6l-1.2 0.2c0-0.2 0.1-0.3 0.1-0.5-0.5 0.3-1.5 2.1-1.9 2.7-0.1 0.3-0.3 0.5-0.4 0.7-0.4 0.7-0.9 1.4-1.5 1.9-0.4 0.4-0.9 0.8-1.4 1-0.5 0.3-1.4 0.6-1.9 0.4-0.8-0.4-1.7-1.7-2.2-2.4-0.3-0.5-0.6-1.2-0.8-1.7-0.4-1.3-0.9-2.4-1.4-3.6-0.7-1.5-0.9-2.2-1.3-3.8 0-0.2-0.1-0.7-0.2-1-0.1-0.9-0.5-2.2-0.8-3l-0.4-1.5c-0.1-0.1-0.2-0.2-0.2-0.4-0.4 0-0.6-0.1-0.8-0.4-0.3-0.3-0.5-0.2-0.9-0.4-0.1-0.9-0.1-1.8-0.2-2.7 0.1-0.1 0.3-0.2 0.4-0.3-0.1-0.5-0.2-0.8-0.3-1.2-0.1-0.9-0.5-1.5-0.5-2.1 0-0.7-0.2-0.7-0.2-1-0.1-0.6 0-1-0.1-1.5-0.1-0.5-0.2-1-0.2-1.4 0-0.2 0.1-0.5 0.2-0.6 1-0.1 0.8 1.2 1.4 1.9 0.1 0.2 0.3 0.7 0.4 0.7-0.2-1.4 0.4-1.8 0.5-2.1 0.2-0.6 0.4-1.5 0.5-2.1 0-0.4 0.1-1.1 0.6-1.2 1.1-0.1 0.3 2.2 0.6 3 0.2 0 0.3-0.2 0.4-0.3 0.2-0.3 0.4-0.7 0.6-1.1q0.2-0.4 0.4-0.8 0.2-0.3 0.4-0.7c1.6 0.1 0.3 2.5 0.1 3.2-0.2 0.7 0.1 0.7 0.6 0.7 0.3 0 0.6 0.1 0.9 0.1l0.4-0.8c0.2-0.4 0.6-0.8 0.7-1.1 0.1-0.1 0.1-0.3 0.2-0.4 0.1-0.4 0-0.5-0.2-0.9-0.1-0.2-0.3-0.7-0.4-0.9h-0.1c-0.1-0.1-0.2-0.6-0.2-0.8-0.6-1.4-0.8-2.5-0.5-4 0-0.3 0-0.5 0.1-0.8 0-0.3 0-0.5 0.1-0.8 0.1-0.8 1.1-1.6 1.7-2.2l0.7-0.8c0.4-0.4 1.1-0.9 1.5-1.2 1.1-0.6 2.9-1.3 4.5-1.2q0.3 0 0.6 0.1c0.5 0.1 1 0.3 1.5 0.5 0.7 0.3 1.2 0 1.6 0.8 0.4 0.8 0.5 0.4 0.9 1 0.2 0.3 0.4 0.6 0.6 0.8 0.1 0.2 0.2 0.3 0.4 0.4 0.5 0.6 0.2 1.4 0.3 2.1 0 0.6 0.8 1.6 1 1.8 1 0.7 1 0.6 1.5 0 0.2-0.2 0.3-0.2 0.5-0.4 1.1-0.9 0.7-0.8 2.2-1.6 0.3-0.1 0.4-0.2 0.7-0.3 0.2 0 0.3-0.2 0.5-0.3 0.5-0.4 0.8 0.1 1.4-0.9l0.1-0.1c0.3-0.4 1.2-1.1 1.6-1.6 0.1-0.2 0.2-0.3 0.4-0.5 0.5-0.4 0.5-0.5 1.2-0.7 0.4 0 3-1.2 3.4-1.4 0.9-0.5 1.6-0.9 2.6-1.3 0.5-0.1 0.8-0.4 1.3-0.6q0.3-0.2 0.6-0.3 0.3-0.2 0.6-0.4c1.5-0.8 1.6-0.4 2.1-0.7 0.8-0.4 2.3-1.7 3.1-2.4 0.2-0.1 0.3-0.3 0.5-0.4 0.2-0.1 0.4-0.2 0.5-0.4q0.3-0.2 0.6-0.4c1.2-0.9 2.1-1.4 3.5-2.1l5.8-2.8c0.5-0.2 2.2-1 2.5-1.2 0.2-0.2 0.3-0.3 0.4-0.5 0.4-0.8 0.3-0.5 1-0.8 0.1 0.1 0.1 0 0.1 0.2 0.3-0.1 0.2-0.1 0.3-0.2 0.3-0.3 0.5-0.3 0.9-0.4 0-0.1 0.1-0.3 0.2-0.5 0.4-0.5 1.1-0.4 1.7-0.5 0.4-0.1 0.5-0.2 0.7-0.4 1.2-1 1.3-0.7 1.9-0.8 0.4-0.1 0.8-0.2 1.2-0.2 0.5-0.1 0.9-0.3 1.3-0.6 0.1-0.2 0.1-0.3 0.2-0.4q0.1-0.2 0.3-0.3c0.6-0.3 1.9-0.5 2.7-0.6 0.7-0.1 1.3-0.4 2.1-0.5 0.7-0.1 0.4 0.1 1.4-0.4zm-136.8 38.6l57.5-7.4 1.5 15.2-19.6 2.1 3.1 32.1-16.6 2.6-4.5-32.1-19.7 2.6zm57.6 46.8c6.5-0.8 11.5 10 6.6 20.2 12.1 6.5 12 22-1.2 26.6l-46.5 5.9-5.9-47.3zm-25.2 33.1l0.1 3.9 20.5-2.1c2.9-0.3 2.6-4.1 0.2-3.9zm-2.8-17.7l0.8 4.3 17.7-2.9c2.5-0.4 1.3-3.4-0.7-3.2zm307.1-51.2l1.8 13.5-31.3 4.7 0.4 3.6 31.9-3.4 1 11.1-31.9 4 0.8 4.2 31.8-3.7 1.7 13.4-48.6 5.9-6.1-46.9zm-115.7 8.4l-6-46.6 21.7-2.6 23.7 23.7-2.5-26.7 16.8-1.9 5.9 46.6-22.6 2.6-23.6-24.6 3.4 27.2zm-8.7-46.9l1.8 13.5-31.3 4.7 0.4 3.6 31.9-3.4 1 11.1-31.9 4 0.8 4.2 31.8-3.7 1.7 13.4-48.6 5.8-6.1-46.8zm43.3 50.1l4.7 31.7 30.3-4.1 1.5 14.6-47.5 6-6.5-46.8zm-125.2-38.8l4.7 31.7 30.3-4.1 1.5 14.7-47.5 6-6.5-46.9zm146.7-18.6l57.5-7.4 1.5 15.2-19.7 2.2 3.2 32-16.7 2.6-4.5-32-19.7 2.5zm-98.5 66.7l57.5-7.4 1.5 15.2-19.6 2.1 3.1 32-16.6 2.6-4.5-32-19.8 2.5zm-58.9 7.3l57.5-7.4 1.4 15.2-19.6 2.1 3.2 32-16.7 2.6-4.5-32-19.7 2.5zm-48.7-39.3c-0.3 0.5-1.3 0.6-1.8 0.6 0 0.5 0 1.5-0.1 2-0.1 0.3-0.7 1.2-1 1.3 0 0.5 0.1 0.1-0.2 0.6q-0.2 0.2-0.4 0.4c-0.2 0.1-0.3 0.1-0.5 0.3-0.1 0.2 0 0.1-0.2 0.3q0 0.1 0 0.1 0 0-0.1 0l-0.1 1.4c0.3 0.6 0.2 0.8 0.7 1.7 0.7 1.1 1 2.4 1.5 3.5 0.3 0.5 0.9 1.1 1 1.5 0.2 0 0.1-0.1 0.1 0.1 0.6-0.2 0.4-0.3 0.6-0.8 0.4-1 0.4-0.8 0.8-1.6 0.3-0.6 0.2-0.6 0.5-0.7-0.1-0.2-0.1-0.2 0.1-0.1 0.1-0.6 0.1-0.4 0.3-0.8-0.1-0.2-0.3-0.4-0.3-0.6-0.1-0.2 0-0.1 0-0.2l1.1-2.6c0.5-0.6 0.4-0.9 0.8-1 0-0.4 0.1-0.7 0.3-1 0.3-0.4 0.5-0.4 0.6-0.9 0.6-1.7 0.6-0.9 0.9-1.8l-0.3-0.1c-0.7-0.2-0.8-0.3-1.1-0.8-0.1-0.2 0-0.1-0.2-0.2-0.1-0.2-0.1-0.1-0.1-0.2-0.2-0.2-0.1 0.1-0.3-0.3-0.2-0.3-0.3-0.5-0.3-0.9-0.4 0.2-0.5 0.3-0.7 0l-0.1 0.1c-0.6 0.3-0.9 0.7-1.5 0.7z"/><path class="d" d="m191.2 106.6l-2.7-21 9.6-1.1 10.1 10.3-1.1-11.2 7-1.1 2.6 20-9.3 1.6-10.3-10.5 1.5 12.2z"/><path fill-rule="evenodd" class="d" d="m217 86c0 0 17.9-8.4 21.7 1.6l1.8 11.9-6.9 0.7-0.5-1.8c-18.4 12.1-23.8-10.3-2-8.1 1.4-0.1 4.2-3.6-11.5 0.1zm7.4 10.7c2.5 0.1 9-1.6 8.5-2.7-0.2-0.4-5.6 0.1-8.6 1.2z"/><path class="d" d="m239.8 81.9l6.4-0.8 2.6 17.3-6.7 1.2z"/><path class="d" d="m239.7 80.1l6.3-0.4-0.2-4.5-6.6 0.4z"/><path class="d" d="m247 75.3l0.6 4.5 6.6-1-0.3-4.2z"/><path class="d" d="m247.7 81.1l2.1 17.8c-1.3 2.7-4.2 1.2-5.9 1.9l0.7 5.6c6.3-1.4 12.4-0.5 12.2-8.1l-2.4-18.1z"/><path fill-rule="evenodd" class="d" d="m257.2 81.2c0 0 17.9-8.5 21.7 1.6l1.8 11.9-6.9 0.6-0.5-1.7c-18.4 12-23.7-10.3-2-8.2 1.4-0.1 4.2-3.5-11.5 0.2zm7.4 10.6c2.5 0.2 9-1.6 8.5-2.7-0.2-0.3-5.6 0.1-8.6 1.3z"/><path class="k" d="m100.7 114.7c18.9-40.1 59.9-67.8 107.4-67.8 38.9 0 73.4 18.6 95.1 47.3l7-0.9c-22.2-35.2-61.2-56.7-103.3-56.7-49.9 0-94.4 30-113 75.2q-0.3 0.7-0.6 1.5l3.4 2.3 2.7 1.9q0.2-0.6 0.5-1.1 0-0.2 0.1-0.3 0.3-0.7 0.7-1.4z"/><path class="b" d="m244.5 38.6q-9.4-0.9-10.2-10.2 0.8-9.3 10.2-10.2 9.3 0.9 10.2 10.2-0.9 9.3-10.2 10.2z"/><path class="c" d="m244.5 33.7q-4.9-0.4-5.3-5.3 0.4-4.8 5.3-5.3 4.8 0.5 5.3 5.3-0.5 4.9-5.3 5.3z"/><path class="d" d="m244.5 31.4c-1.7 0-3-1.3-3-3 0-1.7 1.3-3 3-3 1.6 0 3 1.3 3 3 0 1.7-1.4 3-3 3z"/><path fill-rule="evenodd" class="d" d="m244.5 36.3c-4.4 0-8-3.5-8-7.9 0-4.4 3.6-7.9 8-7.9 4.4 0 7.9 3.5 7.9 7.9 0 4.4-3.5 7.9-7.9 7.9zm6-7.9c0-3.4-2.7-6.1-6-6.1-3.4 0-6.1 2.7-6.1 6.1 0 3.4 2.7 6.1 6.1 6.1 3.3 0 6-2.7 6-6.1z"/><path class="b" d="m278 52.8q-9.4-0.9-10.2-10.2 0.8-9.4 10.2-10.2 9.3 0.8 10.2 10.2-0.9 9.3-10.2 10.2z"/><path class="c" d="m278 47.9q-4.9-0.5-5.3-5.3 0.4-4.9 5.3-5.3 4.8 0.4 5.3 5.3-0.5 4.8-5.3 5.3z"/><path class="d" d="m278 45.6c-1.7 0-3-1.4-3-3 0-1.7 1.3-3.1 3-3.1 1.6 0 3 1.4 3 3.1 0 1.6-1.4 3-3 3z"/><path fill-rule="evenodd" class="d" d="m278 50.5c-4.4 0-8-3.5-8-7.9 0-4.4 3.6-8 8-8 4.4 0 7.9 3.6 7.9 8 0 4.4-3.5 7.9-7.9 7.9zm6-7.9c0-3.4-2.7-6.1-6-6.1-3.4 0-6.1 2.7-6.1 6.1 0 3.3 2.7 6 6.1 6 3.3 0 6-2.7 6-6z"/><path class="b" d="m304.6 73.4q-7.7-0.7-8.5-8.5 0.8-7.7 8.5-8.5 7.8 0.8 8.5 8.5-0.7 7.8-8.5 8.5z"/><path class="c" d="m304.6 69.4q-4-0.4-4.4-4.5 0.4-4 4.4-4.4 4.1 0.4 4.5 4.4-0.4 4.1-4.5 4.5z"/><path class="d" d="m304.6 67.5c-1.3 0-2.5-1.2-2.5-2.6 0-1.3 1.2-2.5 2.5-2.5 1.4 0 2.6 1.2 2.6 2.5 0 1.4-1.2 2.6-2.6 2.6z"/><path fill-rule="evenodd" class="d" d="m304.6 71.6c-3.6 0-6.6-3-6.6-6.7 0-3.6 3-6.6 6.6-6.6 3.7 0 6.7 3 6.7 6.6 0 3.7-3 6.7-6.7 6.7zm5.1-6.7c0-2.8-2.3-5-5.1-5-2.8 0-5 2.2-5 5 0 2.8 2.2 5.1 5 5.1 2.8 0 5.1-2.3 5.1-5.1z"/><path class="b" d="m301.6 264.7q-7.8-0.7-8.5-8.5 0.7-7.7 8.5-8.5 7.8 0.8 8.5 8.5-0.7 7.8-8.5 8.5z"/><path class="c" d="m301.6 260.6q-4-0.3-4.4-4.4 0.4-4 4.4-4.4 4.1 0.4 4.4 4.4-0.3 4.1-4.4 4.4z"/><path class="d" d="m301.6 258.7c-1.4 0-2.5-1.1-2.5-2.5 0-1.4 1.1-2.5 2.5-2.5 1.4 0 2.5 1.1 2.5 2.5 0 1.4-1.1 2.5-2.5 2.5z"/><path fill-rule="evenodd" class="d" d="m301.6 262.9c-3.6 0-6.6-3-6.6-6.7 0-3.6 3-6.6 6.6-6.6 3.7 0 6.6 3 6.6 6.6 0 3.7-2.9 6.7-6.6 6.7zm5.1-6.7c0-2.8-2.3-5-5.1-5-2.8 0-5 2.2-5 5 0 2.8 2.2 5.1 5 5.1 2.8 0 5.1-2.3 5.1-5.1z"/><path class="b" d="m273.7 285.4q-7.8-0.7-8.5-8.5 0.7-7.7 8.5-8.5 7.8 0.8 8.5 8.5-0.7 7.8-8.5 8.5z"/><path class="c" d="m273.7 281.4q-4.1-0.4-4.4-4.5 0.3-4 4.4-4.4 4 0.4 4.4 4.4-0.4 4.1-4.4 4.5z"/><path class="d" d="m273.7 279.4c-1.4 0-2.5-1.1-2.5-2.5 0-1.4 1.1-2.5 2.5-2.5 1.4 0 2.5 1.1 2.5 2.5 0 1.4-1.1 2.5-2.5 2.5z"/><path fill-rule="evenodd" class="d" d="m273.7 283.6c-3.7 0-6.6-3-6.6-6.7 0-3.6 2.9-6.6 6.6-6.6 3.6 0 6.6 3 6.6 6.6 0 3.7-3 6.7-6.6 6.7zm5-6.7c0-2.8-2.2-5-5-5-2.8 0-5.1 2.2-5.1 5 0 2.8 2.3 5.1 5.1 5.1 2.8 0 5-2.3 5-5.1z"/><path class="b" d="m241.1 298.4q-7.8-0.7-8.5-8.5 0.7-7.8 8.5-8.5 7.7 0.7 8.5 8.5-0.8 7.8-8.5 8.5z"/><path class="c" d="m241.1 294.3q-4.1-0.3-4.4-4.4 0.3-4 4.4-4.4 4 0.4 4.4 4.4-0.4 4.1-4.4 4.4z"/><path class="d" d="m241.1 292.4c-1.4 0-2.5-1.1-2.5-2.5 0-1.4 1.1-2.5 2.5-2.5 1.4 0 2.5 1.1 2.5 2.5 0 1.4-1.1 2.5-2.5 2.5z"/><path fill-rule="evenodd" class="d" d="m241.1 296.5c-3.7 0-6.6-2.9-6.6-6.6 0-3.6 2.9-6.6 6.6-6.6 3.6 0 6.6 3 6.6 6.6 0 3.7-3 6.6-6.6 6.6zm5-6.6c0-2.8-2.2-5-5-5-2.8 0-5.1 2.2-5.1 5 0 2.8 2.3 5.1 5.1 5.1 2.8 0 5-2.3 5-5.1z"/><path class="b" d="m205.6 303.6q-9.7-0.9-10.6-10.6 0.9-9.7 10.6-10.6 9.7 0.9 10.6 10.6-0.9 9.7-10.6 10.6z"/><path class="c" d="m205.6 298.5q-5.1-0.5-5.5-5.5 0.4-5.1 5.5-5.5 5 0.4 5.5 5.5-0.5 5-5.5 5.5z"/><path class="d" d="m205.6 296.1c-1.7 0-3.1-1.4-3.1-3.1 0-1.7 1.4-3.1 3.1-3.1 1.7 0 3.1 1.4 3.1 3.1 0 1.7-1.4 3.1-3.1 3.1z"/><path fill-rule="evenodd" class="d" d="m205.6 301.3c-4.6 0-8.3-3.7-8.3-8.3 0-4.6 3.7-8.3 8.3-8.3 4.6 0 8.3 3.7 8.3 8.3 0 4.6-3.7 8.3-8.3 8.3zm6.3-8.3c0-3.5-2.8-6.3-6.3-6.3-3.5 0-6.3 2.8-6.3 6.3 0 3.5 2.8 6.3 6.3 6.3 3.5 0 6.3-2.8 6.3-6.3z"/><path class="b" d="m170.6 297q-8.3-0.8-9.1-9.1 0.8-8.3 9.1-9 8.3 0.7 9.1 9-0.8 8.3-9.1 9.1z"/><path class="c" d="m170.6 292.6q-4.3-0.4-4.7-4.7 0.4-4.3 4.7-4.7 4.3 0.4 4.7 4.7-0.4 4.3-4.7 4.7z"/><path class="d" d="m170.6 290.6c-1.5 0-2.7-1.2-2.7-2.7 0-1.4 1.2-2.6 2.7-2.6 1.5 0 2.7 1.2 2.7 2.6 0 1.5-1.2 2.7-2.7 2.7z"/><path fill-rule="evenodd" class="d" d="m170.6 295c-3.9 0-7.1-3.2-7.1-7.1 0-3.9 3.2-7 7.1-7 3.9 0 7 3.1 7 7 0 3.9-3.1 7.1-7 7.1zm5.4-7.1c0-3-2.4-5.4-5.4-5.4-3 0-5.4 2.4-5.4 5.4 0 3 2.4 5.4 5.4 5.4 3 0 5.4-2.4 5.4-5.4z"/><path class="b" d="m175.5 36.9q-8.5-0.8-9.3-9.3 0.8-8.6 9.3-9.4 8.6 0.8 9.4 9.4-0.8 8.5-9.4 9.3z"/><path class="c" d="m175.5 32.4q-4.4-0.4-4.8-4.8 0.4-4.5 4.8-4.9 4.5 0.4 4.9 4.9-0.4 4.4-4.9 4.8z"/><path class="d" d="m175.5 30.3c-1.5 0-2.7-1.2-2.7-2.7 0-1.6 1.2-2.8 2.7-2.8 1.6 0 2.8 1.2 2.8 2.8 0 1.5-1.2 2.7-2.8 2.7z"/><path fill-rule="evenodd" class="d" d="m175.5 34.9c-4 0-7.3-3.3-7.3-7.3 0-4.1 3.3-7.3 7.3-7.3 4.1 0 7.3 3.2 7.3 7.3 0 4-3.2 7.3-7.3 7.3zm5.6-7.3c0-3.1-2.5-5.6-5.6-5.6-3.1 0-5.5 2.5-5.5 5.6 0 3 2.4 5.5 5.5 5.5 3.1 0 5.6-2.5 5.6-5.5z"/><path class="b" d="m141.9 50.6q-8.5-0.8-9.3-9.3 0.8-8.6 9.3-9.4 8.6 0.8 9.4 9.4-0.8 8.5-9.4 9.3z"/><path class="c" d="m141.9 46.1q-4.4-0.4-4.8-4.8 0.4-4.5 4.8-4.9 4.5 0.4 4.9 4.9-0.4 4.4-4.9 4.8z"/><path class="d" d="m141.9 44c-1.5 0-2.7-1.2-2.7-2.7 0-1.6 1.2-2.8 2.7-2.8 1.5 0 2.8 1.2 2.8 2.8 0 1.5-1.3 2.7-2.8 2.7z"/><path fill-rule="evenodd" class="d" d="m141.9 48.5c-4 0-7.3-3.2-7.3-7.2 0-4.1 3.3-7.3 7.3-7.3 4 0 7.3 3.2 7.3 7.3 0 4-3.3 7.2-7.3 7.2zm5.6-7.2c0-3.1-2.5-5.6-5.6-5.6-3.1 0-5.6 2.5-5.6 5.6 0 3 2.5 5.5 5.6 5.5 3.1 0 5.6-2.5 5.6-5.5z"/><path class="b" d="m115 71.6q-8.6-0.8-9.4-9.4 0.8-8.5 9.4-9.3 8.5 0.8 9.3 9.3-0.8 8.6-9.3 9.4z"/><path class="c" d="m115 67.1q-4.5-0.4-4.9-4.9 0.4-4.4 4.9-4.8 4.4 0.4 4.8 4.8-0.4 4.5-4.8 4.9z"/><path class="d" d="m115 65c-1.6 0-2.8-1.2-2.8-2.8 0-1.5 1.2-2.7 2.8-2.7 1.5 0 2.7 1.2 2.7 2.7 0 1.6-1.2 2.8-2.7 2.8z"/><path fill-rule="evenodd" class="d" d="m115 69.5c-4.1 0-7.3-3.2-7.3-7.3 0-4 3.2-7.3 7.3-7.3 4 0 7.2 3.3 7.2 7.3 0 4.1-3.2 7.3-7.2 7.3zm5.5-7.3c0-3.1-2.5-5.5-5.5-5.5-3.1 0-5.6 2.4-5.6 5.5 0 3.1 2.5 5.6 5.6 5.6 3 0 5.5-2.5 5.5-5.6z"/><path class="b" d="m92.2 97.4q-7-0.6-7.7-7.7 0.7-7 7.7-7.6 7 0.6 7.7 7.6-0.7 7.1-7.7 7.7z"/><path class="c" d="m92.2 93.7q-3.7-0.3-4-4 0.3-3.6 4-4 3.6 0.4 4 4-0.4 3.7-4 4z"/><path class="d" d="m92.2 92c-1.3 0-2.3-1-2.3-2.3 0-1.2 1-2.2 2.3-2.2 1.2 0 2.2 1 2.2 2.2 0 1.3-1 2.3-2.2 2.3z"/><path fill-rule="evenodd" class="d" d="m92.2 95.7c-3.3 0-6-2.7-6-6 0-3.3 2.7-5.9 6-5.9 3.3 0 6 2.6 6 5.9 0 3.3-2.7 6-6 6zm4.5-6c0-2.5-2-4.5-4.5-4.5-2.6 0-4.6 2-4.6 4.5 0 2.6 2 4.6 4.6 4.6 2.5 0 4.5-2 4.5-4.6z"/><path class="l" d="m93.3 113.3c49.9-107 168.7-93.5 217.2-19.1"/><path fill-rule="evenodd" class="m" d="m209.7 3.9c4 0-1.2 0 0.4 0q0.7 0 1.3 0c28.4 1.1 53.9 8.7 75.9 21.6 22.2 12.9 40.8 31.2 55.2 53.5l2.9-0.1q0.5 0 1 0.1 2.3 0.5 4.3 1.3 1.3 0.5 2.4 1.1l5.7-0.1q0.6 0 1.1 0.1c13.1 2.7 21.9 12 26.6 22.8 2 4.6 3.3 9.4 3.8 14.1 0.6 4.8 0.4 9.6-0.5 13.8-1.1 5.3-3.3 9.8-6.5 13.2 1.4 1.5 2.6 3 3.7 4.7 2 3.3 3.4 7 5 13.1q0.2 0.5 0.2 1l4.7 43.4q0.1 0.6 0 1.3l-0.8 5.3 0.7 30.6q0 0.6-0.1 1.2c-1.1 4.8-3 9-6.1 12.5-3.1 3.5-7.2 6.1-12.6 7.7q-0.5 0.2-0.9 0.2l-0.4 0.1c-6.5 1.4-16.8 2.3-27.5 3.2-6.1 0.6-12.3 1.1-17.8 1.8-14.5 17.4-33 32.1-54 42.6-20.2 10-42.7 16.1-66 16.7q-0.1 0-0.3 0-0.2 0-0.4 0-0.4 0-0.7-0.1-0.1 0.1-0.3 0.1c-25.1 0-48.8-5.7-70-15.8-21.2-10-39.8-24.5-54.8-42.2q-7.5 1.1-15.3 1.7-8.6 0.6-17.7 0.6c-0.9 0-1.7-0.2-2.4-0.5-7.3-3.9-13.8-8.5-18.5-14-4.1-4.8-6.7-10.2-7.3-16.2-2-4-3.6-11.9-4.9-21.4-1.5-10.4-2.9-23.4-4-34.6-0.3-2.2 0.5-4.6 1.7-6.6q0.5-1 1.2-2-2.1-2.2-3.9-5.1c-1.9-3.2-3.4-6.8-4.3-11.3q-1-1.2-1.8-2.9c-0.8-1.5-1.3-3.4-1.7-5.6q0-0.1 0-0.2l-1.8-15.4q-0.1-0.8 0.1-1.6c0.6-4.6 2.4-8.2 5-11.1 2.7-2.9 6.2-4.9 10.2-6.2q0.6-0.2 1.2-0.2l34-4.6c10.8-32.3 31.4-60.2 58.3-79.9 27.1-20 60.5-31.7 96.7-31.7zm0.4 10.2c-1.9 0 3.3 0.1-0.4 0.1-33.9 0-65.3 11-90.7 29.6-26 19.2-45.7 46.3-55.5 77.9h-0.1c-0.5 1.8-2.1 3.2-4.2 3.5l-37 5c-2.2 0.8-4 1.8-5.3 3.2-1.2 1.3-2 3-2.4 5.3l1.7 14.7q0.2 1.5 0.7 2.5 0.5 0.9 1.1 1.6c0.7 0.7 1.2 1.7 1.4 2.7 0.6 3.7 1.7 6.6 3.2 9 1.5 2.5 3.4 4.6 5.4 6.5l0.1 0.1c2 2 2 5.2 0.1 7.2-0.6 0.6-1.9 2.1-2.8 3.6-0.2 0.5-0.5 0.6-0.4 0.7 1.1 11 2.4 23.6 3.9 34.2 1.4 9.6 2.7 16.8 3.5 17.7q1.3 1.3 1.5 3.3c0.1 4.1 2 7.9 4.9 11.3 3.5 4.2 8.6 7.8 14.4 11q7.7 0 15.7-0.7 8.7-0.6 17.3-1.9h0.1c1.7-0.3 3.5 0.4 4.7 1.8 14.3 17.5 32.4 31.9 53 41.7 19.9 9.4 42.2 14.7 65.7 14.7q0.5 0 1 0 0.2 0 0.5 0c21.6-0.5 42.7-6.2 61.7-15.6 19.9-10 37.6-24 51.2-40.6 0.1-0.1 0.2-0.3 0.5-0.6 0.8-1.2 2.1-2 3.6-2.2 6.2-0.8 13.2-1.4 20.2-2 10.4-0.9 20.5-1.8 26.2-3.1q0.3-0.1 0.8-0.1h0.1c3.3-1.1 5.7-2.6 7.4-4.6 1.8-1.9 2.9-4.4 3.6-7.4l-0.6-30q-0.1-0.6 0-1.2l0.8-5.1-4.7-42.5c-1.3-4.8-2.3-7.8-3.7-10-1.4-2.1-3.3-4-6.3-6.6-0.6-0.5-1.1-1.2-1.5-2-1.1-2.6 0.1-5.6 2.7-6.7 3.3-1.5 5.5-5.3 6.5-10 0.7-3.3 0.8-6.9 0.4-10.6-0.4-3.8-1.4-7.6-3-11.2-3.4-7.9-9.7-14.7-18.8-16.8l-6 0.1c-1.1 0.1-2.1-0.1-3.1-0.7q-1.1-0.6-2.2-1.1-1-0.4-2.1-0.6l-4.7 0.1c-1.9 0.1-3.8-0.8-4.8-2.5-13.7-21.9-31.7-39.9-53.3-52.5-20.6-12-44.5-19.2-71-20.2q-0.5 0-1 0z"/><path class="b" d="m138.4 283.5q-8.3-0.8-9-9 0.7-8.3 9-9.1 8.3 0.8 9.1 9.1-0.8 8.2-9.1 9z"/><path class="c" d="m138.4 279.2q-4.3-0.4-4.7-4.7 0.4-4.4 4.7-4.8 4.3 0.4 4.7 4.8-0.4 4.3-4.7 4.7z"/><path class="d" d="m138.4 277.1c-1.5 0-2.6-1.2-2.6-2.6 0-1.5 1.1-2.7 2.6-2.7 1.5 0 2.7 1.2 2.7 2.7 0 1.4-1.2 2.6-2.7 2.6z"/><path fill-rule="evenodd" class="d" d="m138.4 281.5c-3.9 0-7-3.1-7-7 0-3.9 3.1-7.1 7-7.1 3.9 0 7.1 3.2 7.1 7.1 0 3.9-3.2 7-7.1 7zm5.4-7c0-3-2.4-5.4-5.4-5.4-3 0-5.4 2.4-5.4 5.4 0 2.9 2.4 5.3 5.4 5.3 3 0 5.4-2.4 5.4-5.3z"/></svg>